<mxfile host="65bd71144e">
    <diagram id="sJBlXnMGeUfMZnBWj3K8" name="한빛 ERD">
        <mxGraphModel dx="799" dy="656" grid="1" gridSize="10" guides="1" tooltips="1" connect="1" arrows="1" fold="1" page="1" pageScale="1" pageWidth="850" pageHeight="1100" math="0" shadow="0">
            <root>
                <mxCell id="0"/>
                <mxCell id="1" parent="0"/>
                <mxCell id="HNF4ECFvsUFawOTw3DNb-4" value="아이디" style="ellipse;whiteSpace=wrap;html=1;align=center;fontStyle=4;" vertex="1" parent="1">
                    <mxGeometry x="60" y="140" width="100" height="40" as="geometry"/>
                </mxCell>
                <mxCell id="HNF4ECFvsUFawOTw3DNb-13" style="edgeStyle=none;html=1;exitX=1;exitY=0.5;exitDx=0;exitDy=0;endArrow=none;endFill=0;entryX=0;entryY=0.5;entryDx=0;entryDy=0;" edge="1" parent="1" source="HNF4ECFvsUFawOTw3DNb-5" target="HNF4ECFvsUFawOTw3DNb-11">
                    <mxGeometry relative="1" as="geometry">
                        <mxPoint x="220" y="270" as="targetPoint"/>
                        <mxPoint x="170" y="210" as="sourcePoint"/>
                    </mxGeometry>
                </mxCell>
                <mxCell id="HNF4ECFvsUFawOTw3DNb-5" value="비밀번호" style="ellipse;whiteSpace=wrap;html=1;align=center;" vertex="1" parent="1">
                    <mxGeometry x="60" y="190" width="100" height="40" as="geometry"/>
                </mxCell>
                <mxCell id="HNF4ECFvsUFawOTw3DNb-14" style="edgeStyle=none;html=1;exitX=1;exitY=0.5;exitDx=0;exitDy=0;endArrow=none;endFill=0;entryX=0;entryY=0.5;entryDx=0;entryDy=0;" edge="1" parent="1" source="HNF4ECFvsUFawOTw3DNb-6" target="HNF4ECFvsUFawOTw3DNb-11">
                    <mxGeometry relative="1" as="geometry">
                        <mxPoint x="220" y="270.2380952380952" as="targetPoint"/>
                        <mxPoint x="170" y="260" as="sourcePoint"/>
                        <Array as="points">
                            <mxPoint x="220" y="260"/>
                        </Array>
                    </mxGeometry>
                </mxCell>
                <mxCell id="HNF4ECFvsUFawOTw3DNb-6" value="이름" style="ellipse;whiteSpace=wrap;html=1;align=center;" vertex="1" parent="1">
                    <mxGeometry x="60" y="240" width="100" height="40" as="geometry"/>
                </mxCell>
                <mxCell id="HNF4ECFvsUFawOTw3DNb-15" style="edgeStyle=none;html=1;exitX=1;exitY=0.5;exitDx=0;exitDy=0;endArrow=none;endFill=0;entryX=0;entryY=0.5;entryDx=0;entryDy=0;" edge="1" parent="1" source="HNF4ECFvsUFawOTw3DNb-7" target="HNF4ECFvsUFawOTw3DNb-11">
                    <mxGeometry relative="1" as="geometry">
                        <mxPoint x="220" y="270" as="targetPoint"/>
                        <mxPoint x="170" y="310" as="sourcePoint"/>
                    </mxGeometry>
                </mxCell>
                <mxCell id="HNF4ECFvsUFawOTw3DNb-7" value="나이" style="ellipse;whiteSpace=wrap;html=1;align=center;" vertex="1" parent="1">
                    <mxGeometry x="60" y="290" width="100" height="40" as="geometry"/>
                </mxCell>
                <mxCell id="HNF4ECFvsUFawOTw3DNb-16" style="edgeStyle=none;html=1;endArrow=none;endFill=0;entryX=0;entryY=0.5;entryDx=0;entryDy=0;exitX=1;exitY=0.5;exitDx=0;exitDy=0;" edge="1" parent="1" source="HNF4ECFvsUFawOTw3DNb-9" target="HNF4ECFvsUFawOTw3DNb-11">
                    <mxGeometry relative="1" as="geometry">
                        <mxPoint x="220" y="270" as="targetPoint"/>
                        <mxPoint x="170" y="360" as="sourcePoint"/>
                    </mxGeometry>
                </mxCell>
                <mxCell id="HNF4ECFvsUFawOTw3DNb-9" value="직업" style="ellipse;whiteSpace=wrap;html=1;align=center;" vertex="1" parent="1">
                    <mxGeometry x="60" y="340" width="100" height="40" as="geometry"/>
                </mxCell>
                <mxCell id="HNF4ECFvsUFawOTw3DNb-12" style="edgeStyle=none;html=1;exitX=0;exitY=0.5;exitDx=0;exitDy=0;entryX=1;entryY=0.5;entryDx=0;entryDy=0;endArrow=none;endFill=0;" edge="1" parent="1" source="HNF4ECFvsUFawOTw3DNb-11" target="HNF4ECFvsUFawOTw3DNb-4">
                    <mxGeometry relative="1" as="geometry">
                        <mxPoint x="170" y="160" as="targetPoint"/>
                    </mxGeometry>
                </mxCell>
                <mxCell id="HNF4ECFvsUFawOTw3DNb-11" value="회원" style="whiteSpace=wrap;html=1;align=center;" vertex="1" parent="1">
                    <mxGeometry x="220" y="240" width="110" height="40" as="geometry"/>
                </mxCell>
                <mxCell id="HNF4ECFvsUFawOTw3DNb-28" style="edgeStyle=none;html=1;exitX=1;exitY=0.5;exitDx=0;exitDy=0;entryX=0;entryY=0.5;entryDx=0;entryDy=0;endArrow=none;endFill=0;" edge="1" parent="1" source="HNF4ECFvsUFawOTw3DNb-20" target="HNF4ECFvsUFawOTw3DNb-24">
                    <mxGeometry relative="1" as="geometry"/>
                </mxCell>
                <mxCell id="HNF4ECFvsUFawOTw3DNb-20" value="상품" style="whiteSpace=wrap;html=1;align=center;" vertex="1" parent="1">
                    <mxGeometry x="490" y="240" width="100" height="40" as="geometry"/>
                </mxCell>
                <mxCell id="HNF4ECFvsUFawOTw3DNb-29" style="edgeStyle=none;html=1;exitX=0;exitY=0.5;exitDx=0;exitDy=0;entryX=1;entryY=0.5;entryDx=0;entryDy=0;endArrow=none;endFill=0;" edge="1" parent="1" source="HNF4ECFvsUFawOTw3DNb-22" target="HNF4ECFvsUFawOTw3DNb-20">
                    <mxGeometry relative="1" as="geometry"/>
                </mxCell>
                <mxCell id="HNF4ECFvsUFawOTw3DNb-22" value="상품명" style="ellipse;whiteSpace=wrap;html=1;align=center;fontStyle=4;" vertex="1" parent="1">
                    <mxGeometry x="690" y="190" width="100" height="40" as="geometry"/>
                </mxCell>
                <mxCell id="HNF4ECFvsUFawOTw3DNb-24" value="상품번호" style="ellipse;whiteSpace=wrap;html=1;align=center;fontStyle=4;" vertex="1" parent="1">
                    <mxGeometry x="690" y="140" width="100" height="40" as="geometry"/>
                </mxCell>
                <mxCell id="HNF4ECFvsUFawOTw3DNb-30" style="edgeStyle=none;html=1;exitX=0;exitY=0.5;exitDx=0;exitDy=0;entryX=1;entryY=0.5;entryDx=0;entryDy=0;endArrow=none;endFill=0;" edge="1" parent="1" source="HNF4ECFvsUFawOTw3DNb-25" target="HNF4ECFvsUFawOTw3DNb-20">
                    <mxGeometry relative="1" as="geometry"/>
                </mxCell>
                <mxCell id="HNF4ECFvsUFawOTw3DNb-25" value="재고량" style="ellipse;whiteSpace=wrap;html=1;align=center;fontStyle=4;" vertex="1" parent="1">
                    <mxGeometry x="690" y="290" width="100" height="40" as="geometry"/>
                </mxCell>
                <mxCell id="HNF4ECFvsUFawOTw3DNb-33" style="edgeStyle=none;html=1;exitX=0;exitY=0.5;exitDx=0;exitDy=0;entryX=1;entryY=0.5;entryDx=0;entryDy=0;endArrow=none;endFill=0;" edge="1" parent="1" source="HNF4ECFvsUFawOTw3DNb-27" target="HNF4ECFvsUFawOTw3DNb-20">
                    <mxGeometry relative="1" as="geometry"/>
                </mxCell>
                <mxCell id="KLHjftI50zOFLZAmfuxU-2" value="" style="edgeStyle=none;html=1;" edge="1" parent="1" source="HNF4ECFvsUFawOTw3DNb-27" target="KLHjftI50zOFLZAmfuxU-1">
                    <mxGeometry relative="1" as="geometry"/>
                </mxCell>
                <mxCell id="HNF4ECFvsUFawOTw3DNb-27" value="단가" style="ellipse;whiteSpace=wrap;html=1;align=center;fontStyle=4;" vertex="1" parent="1">
                    <mxGeometry x="690" y="340" width="100" height="40" as="geometry"/>
                </mxCell>
                <mxCell id="HNF4ECFvsUFawOTw3DNb-39" style="edgeStyle=none;html=1;exitX=0;exitY=0.5;exitDx=0;exitDy=0;endArrow=none;endFill=0;entryX=1;entryY=0.5;entryDx=0;entryDy=0;" edge="1" parent="1" source="HNF4ECFvsUFawOTw3DNb-32" target="HNF4ECFvsUFawOTw3DNb-38">
                    <mxGeometry relative="1" as="geometry">
                        <mxPoint x="610.0000000000001" y="640" as="targetPoint"/>
                    </mxGeometry>
                </mxCell>
                <mxCell id="HNF4ECFvsUFawOTw3DNb-32" value="업체명" style="ellipse;whiteSpace=wrap;html=1;align=center;fontStyle=4;" vertex="1" parent="1">
                    <mxGeometry x="690" y="520" width="100" height="40" as="geometry"/>
                </mxCell>
                <mxCell id="HNF4ECFvsUFawOTw3DNb-43" style="edgeStyle=none;html=1;entryX=1;entryY=0.5;entryDx=0;entryDy=0;endArrow=none;endFill=0;exitX=0;exitY=0.5;exitDx=0;exitDy=0;" edge="1" parent="1" source="HNF4ECFvsUFawOTw3DNb-34" target="HNF4ECFvsUFawOTw3DNb-38">
                    <mxGeometry relative="1" as="geometry"/>
                </mxCell>
                <mxCell id="HNF4ECFvsUFawOTw3DNb-34" value="Attribute" style="ellipse;whiteSpace=wrap;html=1;align=center;fontStyle=4;" vertex="1" parent="1">
                    <mxGeometry x="690" y="720" width="100" height="40" as="geometry"/>
                </mxCell>
                <mxCell id="HNF4ECFvsUFawOTw3DNb-42" style="edgeStyle=none;html=1;exitX=0;exitY=0.5;exitDx=0;exitDy=0;endArrow=none;endFill=0;entryX=1;entryY=0.5;entryDx=0;entryDy=0;" edge="1" parent="1" source="HNF4ECFvsUFawOTw3DNb-35" target="HNF4ECFvsUFawOTw3DNb-38">
                    <mxGeometry relative="1" as="geometry">
                        <mxPoint x="610.0000000000001" y="640" as="targetPoint"/>
                    </mxGeometry>
                </mxCell>
                <mxCell id="HNF4ECFvsUFawOTw3DNb-35" value="담당자" style="ellipse;whiteSpace=wrap;html=1;align=center;fontStyle=4;" vertex="1" parent="1">
                    <mxGeometry x="690" y="670" width="100" height="40" as="geometry"/>
                </mxCell>
                <mxCell id="HNF4ECFvsUFawOTw3DNb-41" style="edgeStyle=none;html=1;entryX=1;entryY=0.5;entryDx=0;entryDy=0;endArrow=none;endFill=0;" edge="1" parent="1" source="HNF4ECFvsUFawOTw3DNb-36" target="HNF4ECFvsUFawOTw3DNb-38">
                    <mxGeometry relative="1" as="geometry"/>
                </mxCell>
                <mxCell id="HNF4ECFvsUFawOTw3DNb-36" value="위치" style="ellipse;whiteSpace=wrap;html=1;align=center;fontStyle=4;" vertex="1" parent="1">
                    <mxGeometry x="690" y="620" width="100" height="40" as="geometry"/>
                </mxCell>
                <mxCell id="HNF4ECFvsUFawOTw3DNb-40" style="edgeStyle=none;html=1;exitX=0;exitY=0.5;exitDx=0;exitDy=0;endArrow=none;endFill=0;entryX=1;entryY=0.5;entryDx=0;entryDy=0;" edge="1" parent="1" source="HNF4ECFvsUFawOTw3DNb-37" target="HNF4ECFvsUFawOTw3DNb-38">
                    <mxGeometry relative="1" as="geometry">
                        <mxPoint x="610.0000000000001" y="640" as="targetPoint"/>
                    </mxGeometry>
                </mxCell>
                <mxCell id="HNF4ECFvsUFawOTw3DNb-37" value="전화번호" style="ellipse;whiteSpace=wrap;html=1;align=center;fontStyle=4;" vertex="1" parent="1">
                    <mxGeometry x="690" y="570" width="100" height="40" as="geometry"/>
                </mxCell>
                <mxCell id="HNF4ECFvsUFawOTw3DNb-38" value="업체코드" style="whiteSpace=wrap;html=1;align=center;" vertex="1" parent="1">
                    <mxGeometry x="490" y="620" width="100" height="40" as="geometry"/>
                </mxCell>
                <mxCell id="HNF4ECFvsUFawOTw3DNb-44" value="글번호" style="ellipse;whiteSpace=wrap;html=1;align=center;fontStyle=4;" vertex="1" parent="1">
                    <mxGeometry x="60" y="545" width="100" height="40" as="geometry"/>
                </mxCell>
                <mxCell id="HNF4ECFvsUFawOTw3DNb-45" style="edgeStyle=none;html=1;exitX=1;exitY=0.5;exitDx=0;exitDy=0;endArrow=none;endFill=0;entryX=0;entryY=0.5;entryDx=0;entryDy=0;" edge="1" source="HNF4ECFvsUFawOTw3DNb-46" parent="1">
                    <mxGeometry relative="1" as="geometry">
                        <mxPoint x="220.0000000000001" y="640" as="targetPoint"/>
                    </mxGeometry>
                </mxCell>
                <mxCell id="HNF4ECFvsUFawOTw3DNb-46" value="내용" style="ellipse;whiteSpace=wrap;html=1;align=center;" vertex="1" parent="1">
                    <mxGeometry x="60" y="595" width="100" height="40" as="geometry"/>
                </mxCell>
                <mxCell id="HNF4ECFvsUFawOTw3DNb-47" style="edgeStyle=none;html=1;exitX=1;exitY=0.5;exitDx=0;exitDy=0;endArrow=none;endFill=0;entryX=0;entryY=0.5;entryDx=0;entryDy=0;" edge="1" source="HNF4ECFvsUFawOTw3DNb-48" parent="1">
                    <mxGeometry relative="1" as="geometry">
                        <mxPoint x="220.0000000000001" y="640" as="targetPoint"/>
                        <Array as="points"/>
                    </mxGeometry>
                </mxCell>
                <mxCell id="HNF4ECFvsUFawOTw3DNb-48" value="작성일" style="ellipse;whiteSpace=wrap;html=1;align=center;" vertex="1" parent="1">
                    <mxGeometry x="60" y="645" width="100" height="40" as="geometry"/>
                </mxCell>
                <mxCell id="HNF4ECFvsUFawOTw3DNb-49" style="edgeStyle=none;html=1;exitX=1;exitY=0.5;exitDx=0;exitDy=0;endArrow=none;endFill=0;entryX=0;entryY=0.5;entryDx=0;entryDy=0;" edge="1" source="HNF4ECFvsUFawOTw3DNb-50" parent="1">
                    <mxGeometry relative="1" as="geometry">
                        <mxPoint x="220.0000000000001" y="640" as="targetPoint"/>
                    </mxGeometry>
                </mxCell>
                <mxCell id="HNF4ECFvsUFawOTw3DNb-50" value="제목" style="ellipse;whiteSpace=wrap;html=1;align=center;" vertex="1" parent="1">
                    <mxGeometry x="60" y="695" width="100" height="40" as="geometry"/>
                </mxCell>
                <mxCell id="HNF4ECFvsUFawOTw3DNb-53" style="edgeStyle=none;html=1;exitX=0;exitY=0.5;exitDx=0;exitDy=0;entryX=1;entryY=0.5;entryDx=0;entryDy=0;endArrow=none;endFill=0;" edge="1" target="HNF4ECFvsUFawOTw3DNb-44" parent="1">
                    <mxGeometry relative="1" as="geometry">
                        <mxPoint x="220.0000000000001" y="640" as="sourcePoint"/>
                    </mxGeometry>
                </mxCell>
                <mxCell id="HNF4ECFvsUFawOTw3DNb-54" value="게시글" style="whiteSpace=wrap;html=1;align=center;" vertex="1" parent="1">
                    <mxGeometry x="220" y="620" width="110" height="40" as="geometry"/>
                </mxCell>
                <mxCell id="HNF4ECFvsUFawOTw3DNb-57" value="주문" style="shape=rhombus;perimeter=rhombusPerimeter;whiteSpace=wrap;html=1;align=center;" vertex="1" parent="1">
                    <mxGeometry x="350" y="230" width="120" height="60" as="geometry"/>
                </mxCell>
                <mxCell id="HNF4ECFvsUFawOTw3DNb-65" value="" style="endArrow=none;html=1;rounded=0;exitX=1;exitY=0.5;exitDx=0;exitDy=0;entryX=0;entryY=0.5;entryDx=0;entryDy=0;" edge="1" parent="1" source="HNF4ECFvsUFawOTw3DNb-57" target="HNF4ECFvsUFawOTw3DNb-20">
                    <mxGeometry relative="1" as="geometry">
                        <mxPoint x="340" y="300" as="sourcePoint"/>
                        <mxPoint x="500" y="300" as="targetPoint"/>
                    </mxGeometry>
                </mxCell>
                <mxCell id="HNF4ECFvsUFawOTw3DNb-66" value="N" style="resizable=0;html=1;whiteSpace=wrap;align=right;verticalAlign=bottom;" connectable="0" vertex="1" parent="HNF4ECFvsUFawOTw3DNb-65">
                    <mxGeometry x="1" relative="1" as="geometry"/>
                </mxCell>
                <mxCell id="HNF4ECFvsUFawOTw3DNb-70" value="" style="endArrow=none;html=1;rounded=0;exitX=0;exitY=0.5;exitDx=0;exitDy=0;entryX=1;entryY=0.5;entryDx=0;entryDy=0;" edge="1" parent="1" source="HNF4ECFvsUFawOTw3DNb-57" target="HNF4ECFvsUFawOTw3DNb-11">
                    <mxGeometry relative="1" as="geometry">
                        <mxPoint x="340" y="300" as="sourcePoint"/>
                        <mxPoint x="500" y="300" as="targetPoint"/>
                    </mxGeometry>
                </mxCell>
                <mxCell id="HNF4ECFvsUFawOTw3DNb-71" value="M" style="resizable=0;html=1;whiteSpace=wrap;align=right;verticalAlign=bottom;" connectable="0" vertex="1" parent="HNF4ECFvsUFawOTw3DNb-70">
                    <mxGeometry x="1" relative="1" as="geometry">
                        <mxPoint y="10" as="offset"/>
                    </mxGeometry>
                </mxCell>
                <mxCell id="HNF4ECFvsUFawOTw3DNb-72" value="공급" style="shape=rhombus;perimeter=rhombusPerimeter;whiteSpace=wrap;html=1;align=center;" vertex="1" parent="1">
                    <mxGeometry x="480" y="390" width="120" height="60" as="geometry"/>
                </mxCell>
                <mxCell id="HNF4ECFvsUFawOTw3DNb-90" value="" style="shape=link;html=1;rounded=0;entryX=0.5;entryY=1;entryDx=0;entryDy=0;exitX=0.5;exitY=0;exitDx=0;exitDy=0;" edge="1" parent="1" source="HNF4ECFvsUFawOTw3DNb-72" target="HNF4ECFvsUFawOTw3DNb-20">
                    <mxGeometry relative="1" as="geometry">
                        <mxPoint x="450" y="530" as="sourcePoint"/>
                        <mxPoint x="610" y="530" as="targetPoint"/>
                        <Array as="points"/>
                    </mxGeometry>
                </mxCell>
                <mxCell id="HNF4ECFvsUFawOTw3DNb-91" value="N" style="resizable=0;html=1;whiteSpace=wrap;align=right;verticalAlign=bottom;" connectable="0" vertex="1" parent="HNF4ECFvsUFawOTw3DNb-90">
                    <mxGeometry x="1" relative="1" as="geometry">
                        <mxPoint y="20" as="offset"/>
                    </mxGeometry>
                </mxCell>
                <mxCell id="HNF4ECFvsUFawOTw3DNb-92" value="" style="endArrow=none;html=1;rounded=0;exitX=0.5;exitY=1;exitDx=0;exitDy=0;entryX=0.5;entryY=0;entryDx=0;entryDy=0;" edge="1" parent="1" source="HNF4ECFvsUFawOTw3DNb-72" target="HNF4ECFvsUFawOTw3DNb-38">
                    <mxGeometry relative="1" as="geometry">
                        <mxPoint x="450" y="540" as="sourcePoint"/>
                        <mxPoint x="540" y="610" as="targetPoint"/>
                    </mxGeometry>
                </mxCell>
                <mxCell id="HNF4ECFvsUFawOTw3DNb-93" value="1" style="resizable=0;html=1;whiteSpace=wrap;align=right;verticalAlign=bottom;" connectable="0" vertex="1" parent="HNF4ECFvsUFawOTw3DNb-92">
                    <mxGeometry x="1" relative="1" as="geometry"/>
                </mxCell>
                <mxCell id="HNF4ECFvsUFawOTw3DNb-94" value="작성" style="shape=rhombus;perimeter=rhombusPerimeter;whiteSpace=wrap;html=1;align=center;" vertex="1" parent="1">
                    <mxGeometry x="215" y="390" width="120" height="60" as="geometry"/>
                </mxCell>
                <mxCell id="HNF4ECFvsUFawOTw3DNb-148" style="edgeStyle=none;html=1;entryX=1;entryY=0.5;entryDx=0;entryDy=0;endArrow=none;endFill=0;" edge="1" parent="1" source="HNF4ECFvsUFawOTw3DNb-98" target="HNF4ECFvsUFawOTw3DNb-72">
                    <mxGeometry relative="1" as="geometry"/>
                </mxCell>
                <mxCell id="HNF4ECFvsUFawOTw3DNb-98" value="공급 일자" style="ellipse;whiteSpace=wrap;html=1;align=center;fontStyle=4;" vertex="1" parent="1">
                    <mxGeometry x="640" y="380" width="100" height="40" as="geometry"/>
                </mxCell>
                <mxCell id="HNF4ECFvsUFawOTw3DNb-103" value="" style="endArrow=none;html=1;rounded=0;entryX=0.5;entryY=1;entryDx=0;entryDy=0;exitX=0.5;exitY=0;exitDx=0;exitDy=0;" edge="1" parent="1" source="HNF4ECFvsUFawOTw3DNb-54" target="HNF4ECFvsUFawOTw3DNb-11">
                    <mxGeometry relative="1" as="geometry">
                        <mxPoint x="275" y="610" as="sourcePoint"/>
                        <mxPoint x="279.66000000000014" y="290" as="targetPoint"/>
                        <Array as="points"/>
                    </mxGeometry>
                </mxCell>
                <mxCell id="HNF4ECFvsUFawOTw3DNb-104" value="1" style="resizable=0;html=1;whiteSpace=wrap;align=left;verticalAlign=bottom;" connectable="0" vertex="1" parent="HNF4ECFvsUFawOTw3DNb-103">
                    <mxGeometry x="-1" relative="1" as="geometry">
                        <mxPoint x="-15" y="-320" as="offset"/>
                    </mxGeometry>
                </mxCell>
                <mxCell id="HNF4ECFvsUFawOTw3DNb-105" value="N" style="resizable=0;html=1;whiteSpace=wrap;align=right;verticalAlign=bottom;" connectable="0" vertex="1" parent="HNF4ECFvsUFawOTw3DNb-103">
                    <mxGeometry x="1" relative="1" as="geometry">
                        <mxPoint x="-5" y="340" as="offset"/>
                    </mxGeometry>
                </mxCell>
                <mxCell id="HNF4ECFvsUFawOTw3DNb-151" style="edgeStyle=none;html=1;entryX=0.5;entryY=0;entryDx=0;entryDy=0;endArrow=none;endFill=0;" edge="1" parent="1" source="HNF4ECFvsUFawOTw3DNb-107" target="HNF4ECFvsUFawOTw3DNb-57">
                    <mxGeometry relative="1" as="geometry"/>
                </mxCell>
                <mxCell id="HNF4ECFvsUFawOTw3DNb-107" value="주문 번호" style="ellipse;whiteSpace=wrap;html=1;align=center;" vertex="1" parent="1">
                    <mxGeometry x="240" y="160" width="100" height="40" as="geometry"/>
                </mxCell>
                <mxCell id="HNF4ECFvsUFawOTw3DNb-152" style="edgeStyle=none;html=1;entryX=0.5;entryY=0;entryDx=0;entryDy=0;endArrow=none;endFill=0;" edge="1" parent="1" source="HNF4ECFvsUFawOTw3DNb-108" target="HNF4ECFvsUFawOTw3DNb-57">
                    <mxGeometry relative="1" as="geometry"/>
                </mxCell>
                <mxCell id="HNF4ECFvsUFawOTw3DNb-108" value="주문수량" style="ellipse;whiteSpace=wrap;html=1;align=center;" vertex="1" parent="1">
                    <mxGeometry x="290" y="110" width="100" height="40" as="geometry"/>
                </mxCell>
                <mxCell id="HNF4ECFvsUFawOTw3DNb-153" style="edgeStyle=none;html=1;entryX=0.5;entryY=0;entryDx=0;entryDy=0;endArrow=none;endFill=0;" edge="1" parent="1" source="HNF4ECFvsUFawOTw3DNb-109" target="HNF4ECFvsUFawOTw3DNb-57">
                    <mxGeometry relative="1" as="geometry"/>
                </mxCell>
                <mxCell id="HNF4ECFvsUFawOTw3DNb-109" value="배송지" style="ellipse;whiteSpace=wrap;html=1;align=center;" vertex="1" parent="1">
                    <mxGeometry x="410" y="110" width="100" height="40" as="geometry"/>
                </mxCell>
                <mxCell id="HNF4ECFvsUFawOTw3DNb-154" style="edgeStyle=none;html=1;entryX=0.5;entryY=0;entryDx=0;entryDy=0;endArrow=none;endFill=0;" edge="1" parent="1" source="HNF4ECFvsUFawOTw3DNb-111" target="HNF4ECFvsUFawOTw3DNb-57">
                    <mxGeometry relative="1" as="geometry"/>
                </mxCell>
                <mxCell id="HNF4ECFvsUFawOTw3DNb-111" value="주문 일자" style="ellipse;whiteSpace=wrap;html=1;align=center;" vertex="1" parent="1">
                    <mxGeometry x="460" y="160" width="100" height="40" as="geometry"/>
                </mxCell>
                <mxCell id="HNF4ECFvsUFawOTw3DNb-147" style="edgeStyle=none;html=1;entryX=1;entryY=0.5;entryDx=0;entryDy=0;endArrow=none;endFill=0;" edge="1" parent="1" source="HNF4ECFvsUFawOTw3DNb-145" target="HNF4ECFvsUFawOTw3DNb-72">
                    <mxGeometry relative="1" as="geometry"/>
                </mxCell>
                <mxCell id="HNF4ECFvsUFawOTw3DNb-145" value="공급량" style="ellipse;whiteSpace=wrap;html=1;align=center;fontStyle=4;" vertex="1" parent="1">
                    <mxGeometry x="640" y="430" width="100" height="40" as="geometry"/>
                </mxCell>
                <mxCell id="hnhOVFIVhpqGOIWxnJHZ-3" style="edgeStyle=none;html=1;exitX=0.5;exitY=1;exitDx=0;exitDy=0;entryX=0.5;entryY=0;entryDx=0;entryDy=0;endArrow=none;endFill=0;" edge="1" parent="1" source="hnhOVFIVhpqGOIWxnJHZ-1" target="HNF4ECFvsUFawOTw3DNb-109">
                    <mxGeometry relative="1" as="geometry"/>
                </mxCell>
                <mxCell id="hnhOVFIVhpqGOIWxnJHZ-1" value="기본주소" style="ellipse;whiteSpace=wrap;html=1;align=center;" vertex="1" parent="1">
                    <mxGeometry x="410" y="50" width="100" height="40" as="geometry"/>
                </mxCell>
                <mxCell id="hnhOVFIVhpqGOIWxnJHZ-4" style="edgeStyle=none;html=1;exitX=0.5;exitY=1;exitDx=0;exitDy=0;entryX=0.5;entryY=0;entryDx=0;entryDy=0;endArrow=none;endFill=0;" edge="1" parent="1" source="hnhOVFIVhpqGOIWxnJHZ-2" target="HNF4ECFvsUFawOTw3DNb-109">
                    <mxGeometry relative="1" as="geometry"/>
                </mxCell>
                <mxCell id="hnhOVFIVhpqGOIWxnJHZ-2" value="상세주소" style="ellipse;whiteSpace=wrap;html=1;align=center;" vertex="1" parent="1">
                    <mxGeometry x="530" y="50" width="100" height="40" as="geometry"/>
                </mxCell>
                <mxCell id="KLHjftI50zOFLZAmfuxU-1" value="제품색상" style="ellipse;whiteSpace=wrap;html=1;align=center;fontStyle=4;" vertex="1" parent="1">
                    <mxGeometry x="690" y="240" width="100" height="40" as="geometry"/>
                </mxCell>
            </root>
        </mxGraphModel>
    </diagram>
    <diagram id="zdrPzNwttACVqK6pW369" name="개념">
        <mxGraphModel dx="1398" dy="450" grid="1" gridSize="10" guides="1" tooltips="1" connect="1" arrows="1" fold="1" page="1" pageScale="1" pageWidth="850" pageHeight="1100" math="0" shadow="0">
            <root>
                <mxCell id="0"/>
                <mxCell id="1" parent="0"/>
                <mxCell id="c0eIjJ8aanFhv7HPf_AA-2" value="&lt;h1 style=&quot;margin-top: 0px;&quot;&gt;데이터 베이스 설계 단계&lt;/h1&gt;&lt;div&gt;1. 요구사항 분석 - 요구사항정의서&lt;/div&gt;&lt;div&gt;&lt;br&gt;&lt;/div&gt;&lt;div&gt;2. 개념적 설계 - ERD&lt;/div&gt;&lt;div&gt;&lt;br&gt;&lt;/div&gt;&lt;div&gt;3. 논리적 설계 - 릴레이션 스키마&lt;/div&gt;&lt;div&gt;&lt;br&gt;&lt;/div&gt;&lt;div&gt;4. 물리적 설계 - 테이블 정의서, sql script&lt;/div&gt;&lt;div&gt;&lt;br&gt;&lt;/div&gt;&lt;div&gt;5. 구현 - 테이블 작성&lt;/div&gt;" style="text;html=1;whiteSpace=wrap;overflow=hidden;rounded=0;" vertex="1" parent="1">
                    <mxGeometry x="-40" y="80" width="270" height="270" as="geometry"/>
                </mxCell>
                <mxCell id="c0eIjJ8aanFhv7HPf_AA-4" value="&lt;h1 style=&quot;margin-top: 0px;&quot;&gt;개념적 설계&lt;/h1&gt;&lt;div&gt;ERD(Entity Relationship Diagram) 작성&lt;/div&gt;&lt;div&gt;&lt;br&gt;&lt;/div&gt;&lt;div&gt;데이터 베이스 설계의 이해도 높이기&lt;/div&gt;" style="text;html=1;whiteSpace=wrap;overflow=hidden;rounded=0;" vertex="1" parent="1">
                    <mxGeometry x="-40" y="360" width="240" height="120" as="geometry"/>
                </mxCell>
                <mxCell id="c0eIjJ8aanFhv7HPf_AA-5" value="Entity" style="whiteSpace=wrap;html=1;align=center;" vertex="1" parent="1">
                    <mxGeometry x="-50" y="520" width="100" height="40" as="geometry"/>
                </mxCell>
                <mxCell id="c0eIjJ8aanFhv7HPf_AA-6" value="entity = 객체 = 테이블 = 릴레이션" style="text;html=1;align=center;verticalAlign=middle;whiteSpace=wrap;rounded=0;" vertex="1" parent="1">
                    <mxGeometry x="65" y="520" width="190" height="40" as="geometry"/>
                </mxCell>
                <mxCell id="c0eIjJ8aanFhv7HPf_AA-8" value="Relationship" style="shape=rhombus;perimeter=rhombusPerimeter;whiteSpace=wrap;html=1;align=center;" vertex="1" parent="1">
                    <mxGeometry x="-60" y="600" width="120" height="40" as="geometry"/>
                </mxCell>
                <mxCell id="c0eIjJ8aanFhv7HPf_AA-9" value="관계" style="text;html=1;align=center;verticalAlign=middle;whiteSpace=wrap;rounded=0;" vertex="1" parent="1">
                    <mxGeometry x="120" y="600" width="80" height="40" as="geometry"/>
                </mxCell>
                <mxCell id="c0eIjJ8aanFhv7HPf_AA-10" value="&lt;span style=&quot;border-bottom: 1px dotted&quot;&gt;Attribute&lt;/span&gt;" style="ellipse;whiteSpace=wrap;html=1;align=center;" vertex="1" parent="1">
                    <mxGeometry x="-40" y="680" width="80" height="40" as="geometry"/>
                </mxCell>
                <mxCell id="c0eIjJ8aanFhv7HPf_AA-11" value="키 속성" style="text;html=1;align=center;verticalAlign=middle;whiteSpace=wrap;rounded=0;" vertex="1" parent="1">
                    <mxGeometry x="120" y="680" width="80" height="40" as="geometry"/>
                </mxCell>
                <mxCell id="c0eIjJ8aanFhv7HPf_AA-12" value="Attribute" style="ellipse;shape=doubleEllipse;margin=3;whiteSpace=wrap;html=1;align=center;" vertex="1" parent="1">
                    <mxGeometry x="-40" y="760" width="80" height="40" as="geometry"/>
                </mxCell>
                <mxCell id="c0eIjJ8aanFhv7HPf_AA-13" value="multi value(취미 : 야구, 독서, 수영..." style="text;html=1;align=center;verticalAlign=middle;whiteSpace=wrap;rounded=0;" vertex="1" parent="1">
                    <mxGeometry x="80" y="760" width="200" height="40" as="geometry"/>
                </mxCell>
                <mxCell id="c0eIjJ8aanFhv7HPf_AA-14" value="Relationship" style="shape=rhombus;perimeter=rhombusPerimeter;whiteSpace=wrap;html=1;align=center;" vertex="1" parent="1">
                    <mxGeometry x="140" y="920" width="120" height="40" as="geometry"/>
                </mxCell>
                <mxCell id="c0eIjJ8aanFhv7HPf_AA-17" value="user" style="whiteSpace=wrap;html=1;align=center;" vertex="1" parent="1">
                    <mxGeometry y="920" width="80" height="40" as="geometry"/>
                </mxCell>
                <mxCell id="c0eIjJ8aanFhv7HPf_AA-18" value="Relationship" style="shape=rhombus;perimeter=rhombusPerimeter;whiteSpace=wrap;html=1;align=center;" vertex="1" parent="1">
                    <mxGeometry x="510" y="1320" width="120" height="40" as="geometry"/>
                </mxCell>
                <mxCell id="c0eIjJ8aanFhv7HPf_AA-19" value="profile" style="whiteSpace=wrap;html=1;align=center;" vertex="1" parent="1">
                    <mxGeometry x="320" y="920" width="80" height="40" as="geometry"/>
                </mxCell>
                <mxCell id="c0eIjJ8aanFhv7HPf_AA-24" value="" style="endArrow=none;html=1;rounded=0;exitX=0;exitY=0.5;exitDx=0;exitDy=0;entryX=1;entryY=0.5;entryDx=0;entryDy=0;" edge="1" parent="1" source="c0eIjJ8aanFhv7HPf_AA-14" target="c0eIjJ8aanFhv7HPf_AA-17">
                    <mxGeometry relative="1" as="geometry">
                        <mxPoint x="40" y="860" as="sourcePoint"/>
                        <mxPoint x="200" y="860" as="targetPoint"/>
                    </mxGeometry>
                </mxCell>
                <mxCell id="c0eIjJ8aanFhv7HPf_AA-25" value="1" style="resizable=0;html=1;whiteSpace=wrap;align=right;verticalAlign=bottom;" connectable="0" vertex="1" parent="c0eIjJ8aanFhv7HPf_AA-24">
                    <mxGeometry x="1" relative="1" as="geometry"/>
                </mxCell>
                <mxCell id="c0eIjJ8aanFhv7HPf_AA-28" value="" style="endArrow=none;html=1;rounded=0;entryX=0;entryY=0.5;entryDx=0;entryDy=0;exitX=1;exitY=0.5;exitDx=0;exitDy=0;" edge="1" parent="1" source="c0eIjJ8aanFhv7HPf_AA-14" target="c0eIjJ8aanFhv7HPf_AA-19">
                    <mxGeometry relative="1" as="geometry">
                        <mxPoint x="40" y="860" as="sourcePoint"/>
                        <mxPoint x="200" y="860" as="targetPoint"/>
                    </mxGeometry>
                </mxCell>
                <mxCell id="c0eIjJ8aanFhv7HPf_AA-29" value="1" style="resizable=0;html=1;whiteSpace=wrap;align=right;verticalAlign=bottom;" connectable="0" vertex="1" parent="c0eIjJ8aanFhv7HPf_AA-28">
                    <mxGeometry x="1" relative="1" as="geometry"/>
                </mxCell>
                <mxCell id="c0eIjJ8aanFhv7HPf_AA-30" value="Relationship" style="shape=rhombus;perimeter=rhombusPerimeter;whiteSpace=wrap;html=1;align=center;" vertex="1" parent="1">
                    <mxGeometry x="140" y="1000" width="120" height="40" as="geometry"/>
                </mxCell>
                <mxCell id="c0eIjJ8aanFhv7HPf_AA-31" value="학과" style="whiteSpace=wrap;html=1;align=center;" vertex="1" parent="1">
                    <mxGeometry y="1000" width="80" height="40" as="geometry"/>
                </mxCell>
                <mxCell id="c0eIjJ8aanFhv7HPf_AA-32" value="학생" style="whiteSpace=wrap;html=1;align=center;" vertex="1" parent="1">
                    <mxGeometry x="320" y="1000" width="80" height="40" as="geometry"/>
                </mxCell>
                <mxCell id="c0eIjJ8aanFhv7HPf_AA-33" value="" style="endArrow=none;html=1;rounded=0;exitX=0;exitY=0.5;exitDx=0;exitDy=0;entryX=1;entryY=0.5;entryDx=0;entryDy=0;" edge="1" source="c0eIjJ8aanFhv7HPf_AA-30" target="c0eIjJ8aanFhv7HPf_AA-31" parent="1">
                    <mxGeometry relative="1" as="geometry">
                        <mxPoint x="40" y="940" as="sourcePoint"/>
                        <mxPoint x="200" y="940" as="targetPoint"/>
                    </mxGeometry>
                </mxCell>
                <mxCell id="c0eIjJ8aanFhv7HPf_AA-34" value="1" style="resizable=0;html=1;whiteSpace=wrap;align=right;verticalAlign=bottom;" connectable="0" vertex="1" parent="c0eIjJ8aanFhv7HPf_AA-33">
                    <mxGeometry x="1" relative="1" as="geometry"/>
                </mxCell>
                <mxCell id="c0eIjJ8aanFhv7HPf_AA-35" value="" style="endArrow=ERmany;html=1;rounded=0;entryX=0;entryY=0.5;entryDx=0;entryDy=0;exitX=1;exitY=0.5;exitDx=0;exitDy=0;endFill=0;" edge="1" source="c0eIjJ8aanFhv7HPf_AA-30" target="c0eIjJ8aanFhv7HPf_AA-32" parent="1">
                    <mxGeometry relative="1" as="geometry">
                        <mxPoint x="40" y="940" as="sourcePoint"/>
                        <mxPoint x="200" y="940" as="targetPoint"/>
                    </mxGeometry>
                </mxCell>
                <mxCell id="c0eIjJ8aanFhv7HPf_AA-36" value="N" style="resizable=0;html=1;whiteSpace=wrap;align=right;verticalAlign=bottom;" connectable="0" vertex="1" parent="c0eIjJ8aanFhv7HPf_AA-35">
                    <mxGeometry x="1" relative="1" as="geometry"/>
                </mxCell>
                <mxCell id="c0eIjJ8aanFhv7HPf_AA-37" value="Relationship" style="shape=rhombus;perimeter=rhombusPerimeter;whiteSpace=wrap;html=1;align=center;" vertex="1" parent="1">
                    <mxGeometry x="140" y="1080" width="120" height="40" as="geometry"/>
                </mxCell>
                <mxCell id="c0eIjJ8aanFhv7HPf_AA-38" value="학과" style="whiteSpace=wrap;html=1;align=center;" vertex="1" parent="1">
                    <mxGeometry y="1080" width="80" height="40" as="geometry"/>
                </mxCell>
                <mxCell id="c0eIjJ8aanFhv7HPf_AA-39" value="학생" style="whiteSpace=wrap;html=1;align=center;" vertex="1" parent="1">
                    <mxGeometry x="320" y="1080" width="80" height="40" as="geometry"/>
                </mxCell>
                <mxCell id="c0eIjJ8aanFhv7HPf_AA-40" value="" style="endArrow=ERmany;html=1;rounded=0;exitX=0;exitY=0.5;exitDx=0;exitDy=0;entryX=1;entryY=0.5;entryDx=0;entryDy=0;endFill=0;" edge="1" source="c0eIjJ8aanFhv7HPf_AA-37" target="c0eIjJ8aanFhv7HPf_AA-38" parent="1">
                    <mxGeometry relative="1" as="geometry">
                        <mxPoint x="40" y="1020" as="sourcePoint"/>
                        <mxPoint x="200" y="1020" as="targetPoint"/>
                    </mxGeometry>
                </mxCell>
                <mxCell id="c0eIjJ8aanFhv7HPf_AA-41" value="N" style="resizable=0;html=1;whiteSpace=wrap;align=right;verticalAlign=bottom;" connectable="0" vertex="1" parent="c0eIjJ8aanFhv7HPf_AA-40">
                    <mxGeometry x="1" relative="1" as="geometry">
                        <mxPoint x="10" as="offset"/>
                    </mxGeometry>
                </mxCell>
                <mxCell id="c0eIjJ8aanFhv7HPf_AA-42" value="" style="endArrow=ERmany;html=1;rounded=0;entryX=0;entryY=0.5;entryDx=0;entryDy=0;exitX=1;exitY=0.5;exitDx=0;exitDy=0;endFill=0;" edge="1" source="c0eIjJ8aanFhv7HPf_AA-37" target="c0eIjJ8aanFhv7HPf_AA-39" parent="1">
                    <mxGeometry relative="1" as="geometry">
                        <mxPoint x="40" y="1020" as="sourcePoint"/>
                        <mxPoint x="200" y="1020" as="targetPoint"/>
                    </mxGeometry>
                </mxCell>
                <mxCell id="c0eIjJ8aanFhv7HPf_AA-43" value="N" style="resizable=0;html=1;whiteSpace=wrap;align=right;verticalAlign=bottom;" connectable="0" vertex="1" parent="c0eIjJ8aanFhv7HPf_AA-42">
                    <mxGeometry x="1" relative="1" as="geometry"/>
                </mxCell>
                <mxCell id="c0eIjJ8aanFhv7HPf_AA-45" value="Relationship" style="shape=rhombus;perimeter=rhombusPerimeter;whiteSpace=wrap;html=1;align=center;" vertex="1" parent="1">
                    <mxGeometry x="140" y="1160" width="120" height="40" as="geometry"/>
                </mxCell>
                <mxCell id="c0eIjJ8aanFhv7HPf_AA-46" value="학생" style="whiteSpace=wrap;html=1;align=center;" vertex="1" parent="1">
                    <mxGeometry y="1160" width="80" height="40" as="geometry"/>
                </mxCell>
                <mxCell id="c0eIjJ8aanFhv7HPf_AA-47" value="과목" style="whiteSpace=wrap;html=1;align=center;" vertex="1" parent="1">
                    <mxGeometry x="320" y="1160" width="80" height="40" as="geometry"/>
                </mxCell>
                <mxCell id="c0eIjJ8aanFhv7HPf_AA-48" value="" style="endArrow=ERmany;html=1;rounded=0;exitX=0;exitY=0.5;exitDx=0;exitDy=0;entryX=1;entryY=0.5;entryDx=0;entryDy=0;endFill=0;" edge="1" source="c0eIjJ8aanFhv7HPf_AA-45" target="c0eIjJ8aanFhv7HPf_AA-46" parent="1">
                    <mxGeometry relative="1" as="geometry">
                        <mxPoint x="40" y="1100" as="sourcePoint"/>
                        <mxPoint x="200" y="1100" as="targetPoint"/>
                    </mxGeometry>
                </mxCell>
                <mxCell id="c0eIjJ8aanFhv7HPf_AA-49" value="N" style="resizable=0;html=1;whiteSpace=wrap;align=right;verticalAlign=bottom;" connectable="0" vertex="1" parent="c0eIjJ8aanFhv7HPf_AA-48">
                    <mxGeometry x="1" relative="1" as="geometry">
                        <mxPoint x="10" as="offset"/>
                    </mxGeometry>
                </mxCell>
                <mxCell id="c0eIjJ8aanFhv7HPf_AA-50" value="" style="endArrow=ERmany;html=1;rounded=0;entryX=0;entryY=0.5;entryDx=0;entryDy=0;exitX=1;exitY=0.5;exitDx=0;exitDy=0;endFill=0;" edge="1" source="c0eIjJ8aanFhv7HPf_AA-45" target="c0eIjJ8aanFhv7HPf_AA-47" parent="1">
                    <mxGeometry relative="1" as="geometry">
                        <mxPoint x="40" y="1100" as="sourcePoint"/>
                        <mxPoint x="200" y="1100" as="targetPoint"/>
                    </mxGeometry>
                </mxCell>
                <mxCell id="c0eIjJ8aanFhv7HPf_AA-51" value="N" style="resizable=0;html=1;whiteSpace=wrap;align=right;verticalAlign=bottom;" connectable="0" vertex="1" parent="c0eIjJ8aanFhv7HPf_AA-50">
                    <mxGeometry x="1" relative="1" as="geometry"/>
                </mxCell>
                <mxCell id="c0eIjJ8aanFhv7HPf_AA-52" value="" style="endArrow=none;html=1;rounded=0;edgeStyle=elbowEdgeStyle;elbow=vertical;" edge="1" parent="1">
                    <mxGeometry relative="1" as="geometry">
                        <mxPoint x="120" y="1260" as="sourcePoint"/>
                        <mxPoint x="280" y="1260" as="targetPoint"/>
                        <Array as="points">
                            <mxPoint x="200" y="1280"/>
                        </Array>
                    </mxGeometry>
                </mxCell>
                <mxCell id="c0eIjJ8aanFhv7HPf_AA-53" value="" style="endArrow=none;html=1;rounded=0;edgeStyle=elbowEdgeStyle;elbow=vertical;" edge="1" parent="1">
                    <mxGeometry relative="1" as="geometry">
                        <mxPoint x="120" y="1260" as="sourcePoint"/>
                        <mxPoint x="280" y="1260" as="targetPoint"/>
                        <Array as="points">
                            <mxPoint x="200" y="1240"/>
                        </Array>
                    </mxGeometry>
                </mxCell>
                <mxCell id="c0eIjJ8aanFhv7HPf_AA-54" value="" style="endArrow=none;html=1;rounded=0;edgeStyle=elbowEdgeStyle;elbow=vertical;" edge="1" parent="1">
                    <mxGeometry relative="1" as="geometry">
                        <mxPoint x="120" y="1260" as="sourcePoint"/>
                        <mxPoint x="280" y="1260" as="targetPoint"/>
                        <Array as="points">
                            <mxPoint x="200" y="1260"/>
                        </Array>
                    </mxGeometry>
                </mxCell>
                <mxCell id="c0eIjJ8aanFhv7HPf_AA-55" value="" style="endArrow=none;html=1;rounded=0;edgeStyle=elbowEdgeStyle;elbow=vertical;" edge="1" parent="1">
                    <mxGeometry relative="1" as="geometry">
                        <mxPoint x="120" y="1300" as="sourcePoint"/>
                        <mxPoint x="280" y="1300" as="targetPoint"/>
                        <Array as="points">
                            <mxPoint x="200" y="1320"/>
                        </Array>
                    </mxGeometry>
                </mxCell>
                <mxCell id="c0eIjJ8aanFhv7HPf_AA-56" value="" style="endArrow=none;html=1;rounded=0;edgeStyle=elbowEdgeStyle;elbow=vertical;" edge="1" parent="1">
                    <mxGeometry relative="1" as="geometry">
                        <mxPoint x="120" y="1320" as="sourcePoint"/>
                        <mxPoint x="280" y="1320" as="targetPoint"/>
                        <Array as="points">
                            <mxPoint x="200" y="1340"/>
                        </Array>
                    </mxGeometry>
                </mxCell>
                <mxCell id="c0eIjJ8aanFhv7HPf_AA-57" value="" style="endArrow=none;html=1;rounded=0;edgeStyle=elbowEdgeStyle;elbow=vertical;" edge="1" parent="1">
                    <mxGeometry relative="1" as="geometry">
                        <mxPoint x="120" y="1280" as="sourcePoint"/>
                        <mxPoint x="280" y="1280" as="targetPoint"/>
                        <Array as="points">
                            <mxPoint x="200" y="1300"/>
                        </Array>
                    </mxGeometry>
                </mxCell>
                <mxCell id="t62spVPB7umGsnobbS2V-1" value="배송지" style="ellipse;whiteSpace=wrap;html=1;align=center;" vertex="1" parent="1">
                    <mxGeometry x="320" y="680" width="80" height="40" as="geometry"/>
                </mxCell>
                <mxCell id="t62spVPB7umGsnobbS2V-10" style="edgeStyle=none;html=1;entryX=0.5;entryY=0;entryDx=0;entryDy=0;endArrow=none;endFill=0;" edge="1" parent="1" source="t62spVPB7umGsnobbS2V-2" target="t62spVPB7umGsnobbS2V-1">
                    <mxGeometry relative="1" as="geometry"/>
                </mxCell>
                <mxCell id="t62spVPB7umGsnobbS2V-2" value="기본주소" style="ellipse;whiteSpace=wrap;html=1;align=center;" vertex="1" parent="1">
                    <mxGeometry x="260" y="600" width="80" height="40" as="geometry"/>
                </mxCell>
                <mxCell id="t62spVPB7umGsnobbS2V-3" value="&lt;span style=&quot;border-bottom: 1px dotted&quot;&gt;Attribute&lt;/span&gt;" style="ellipse;whiteSpace=wrap;html=1;align=center;" vertex="1" parent="1">
                    <mxGeometry x="677.5" y="520" width="80" height="40" as="geometry"/>
                </mxCell>
                <mxCell id="t62spVPB7umGsnobbS2V-9" style="edgeStyle=none;html=1;exitX=0.5;exitY=1;exitDx=0;exitDy=0;entryX=0.5;entryY=0;entryDx=0;entryDy=0;endArrow=none;endFill=0;" edge="1" parent="1" source="t62spVPB7umGsnobbS2V-4" target="t62spVPB7umGsnobbS2V-1">
                    <mxGeometry relative="1" as="geometry">
                        <mxPoint x="500" y="650" as="targetPoint"/>
                    </mxGeometry>
                </mxCell>
                <mxCell id="t62spVPB7umGsnobbS2V-4" value="상세주소" style="ellipse;whiteSpace=wrap;html=1;align=center;" vertex="1" parent="1">
                    <mxGeometry x="382.5" y="600" width="80" height="40" as="geometry"/>
                </mxCell>
                <mxCell id="t62spVPB7umGsnobbS2V-5" value="&lt;span style=&quot;border-bottom: 1px dotted&quot;&gt;Attribute&lt;/span&gt;" style="ellipse;whiteSpace=wrap;html=1;align=center;" vertex="1" parent="1">
                    <mxGeometry x="682.5" y="520" width="80" height="40" as="geometry"/>
                </mxCell>
                <mxCell id="t62spVPB7umGsnobbS2V-8" value="복합주소" style="text;html=1;align=center;verticalAlign=middle;whiteSpace=wrap;rounded=0;" vertex="1" parent="1">
                    <mxGeometry x="330" y="530" width="60" height="30" as="geometry"/>
                </mxCell>
            </root>
        </mxGraphModel>
    </diagram>
    <diagram id="IzqLT7w9aaJMc8rzFRmO" name="한빛릴레이션">
        <mxGraphModel dx="661" dy="543" grid="1" gridSize="10" guides="1" tooltips="1" connect="1" arrows="1" fold="1" page="1" pageScale="1" pageWidth="850" pageHeight="1100" math="0" shadow="0">
            <root>
                <mxCell id="0"/>
                <mxCell id="1" parent="0"/>
                <mxCell id="pcISlZ0PNa_2x5MgNCL7-1" value="&lt;h1 style=&quot;margin-top: 0px;&quot;&gt;릴레이션 스키마(관계데이터모델)&lt;/h1&gt;&lt;div&gt;1. 모든 개체는 릴레이션으로 변환한다&lt;/div&gt;&lt;div&gt;2. 다데다 관계는 릴레이션으로 변환한다.&lt;/div&gt;&lt;div&gt;3. 일대다 관계는 외래키로 표현한다&lt;/div&gt;&lt;div&gt;4. 일대일 관계는 외래키로 표현한다&lt;/div&gt;&lt;div&gt;5. 다중값 속성은 릴레이션으로 변환하다&lt;/div&gt;" style="text;html=1;whiteSpace=wrap;overflow=hidden;rounded=0;" vertex="1" parent="1">
                    <mxGeometry x="10" y="10" width="370" height="130" as="geometry"/>
                </mxCell>
                <mxCell id="5YLcJqBsJinkJbN5VngP-1" value="회원" style="shape=table;startSize=30;container=1;collapsible=1;childLayout=tableLayout;fixedRows=1;rowLines=0;fontStyle=1;align=center;resizeLast=1;html=1;" vertex="1" parent="1">
                    <mxGeometry x="250" y="60" width="180" height="180" as="geometry"/>
                </mxCell>
                <mxCell id="5YLcJqBsJinkJbN5VngP-2" value="" style="shape=tableRow;horizontal=0;startSize=0;swimlaneHead=0;swimlaneBody=0;fillColor=none;collapsible=0;dropTarget=0;points=[[0,0.5],[1,0.5]];portConstraint=eastwest;top=0;left=0;right=0;bottom=1;" vertex="1" parent="5YLcJqBsJinkJbN5VngP-1">
                    <mxGeometry y="30" width="180" height="30" as="geometry"/>
                </mxCell>
                <mxCell id="5YLcJqBsJinkJbN5VngP-3" value="PK" style="shape=partialRectangle;connectable=0;fillColor=none;top=0;left=0;bottom=0;right=0;fontStyle=1;overflow=hidden;whiteSpace=wrap;html=1;" vertex="1" parent="5YLcJqBsJinkJbN5VngP-2">
                    <mxGeometry width="30" height="30" as="geometry">
                        <mxRectangle width="30" height="30" as="alternateBounds"/>
                    </mxGeometry>
                </mxCell>
                <mxCell id="5YLcJqBsJinkJbN5VngP-4" value="아이디" style="shape=partialRectangle;connectable=0;fillColor=none;top=0;left=0;bottom=0;right=0;align=left;spacingLeft=6;fontStyle=5;overflow=hidden;whiteSpace=wrap;html=1;" vertex="1" parent="5YLcJqBsJinkJbN5VngP-2">
                    <mxGeometry x="30" width="150" height="30" as="geometry">
                        <mxRectangle width="150" height="30" as="alternateBounds"/>
                    </mxGeometry>
                </mxCell>
                <mxCell id="5YLcJqBsJinkJbN5VngP-5" value="" style="shape=tableRow;horizontal=0;startSize=0;swimlaneHead=0;swimlaneBody=0;fillColor=none;collapsible=0;dropTarget=0;points=[[0,0.5],[1,0.5]];portConstraint=eastwest;top=0;left=0;right=0;bottom=0;" vertex="1" parent="5YLcJqBsJinkJbN5VngP-1">
                    <mxGeometry y="60" width="180" height="30" as="geometry"/>
                </mxCell>
                <mxCell id="5YLcJqBsJinkJbN5VngP-6" value="" style="shape=partialRectangle;connectable=0;fillColor=none;top=0;left=0;bottom=0;right=0;editable=1;overflow=hidden;whiteSpace=wrap;html=1;" vertex="1" parent="5YLcJqBsJinkJbN5VngP-5">
                    <mxGeometry width="30" height="30" as="geometry">
                        <mxRectangle width="30" height="30" as="alternateBounds"/>
                    </mxGeometry>
                </mxCell>
                <mxCell id="5YLcJqBsJinkJbN5VngP-7" value="비밀번호" style="shape=partialRectangle;connectable=0;fillColor=none;top=0;left=0;bottom=0;right=0;align=left;spacingLeft=6;overflow=hidden;whiteSpace=wrap;html=1;" vertex="1" parent="5YLcJqBsJinkJbN5VngP-5">
                    <mxGeometry x="30" width="150" height="30" as="geometry">
                        <mxRectangle width="150" height="30" as="alternateBounds"/>
                    </mxGeometry>
                </mxCell>
                <mxCell id="5YLcJqBsJinkJbN5VngP-8" value="" style="shape=tableRow;horizontal=0;startSize=0;swimlaneHead=0;swimlaneBody=0;fillColor=none;collapsible=0;dropTarget=0;points=[[0,0.5],[1,0.5]];portConstraint=eastwest;top=0;left=0;right=0;bottom=0;" vertex="1" parent="5YLcJqBsJinkJbN5VngP-1">
                    <mxGeometry y="90" width="180" height="30" as="geometry"/>
                </mxCell>
                <mxCell id="5YLcJqBsJinkJbN5VngP-9" value="" style="shape=partialRectangle;connectable=0;fillColor=none;top=0;left=0;bottom=0;right=0;editable=1;overflow=hidden;whiteSpace=wrap;html=1;" vertex="1" parent="5YLcJqBsJinkJbN5VngP-8">
                    <mxGeometry width="30" height="30" as="geometry">
                        <mxRectangle width="30" height="30" as="alternateBounds"/>
                    </mxGeometry>
                </mxCell>
                <mxCell id="5YLcJqBsJinkJbN5VngP-10" value="이름" style="shape=partialRectangle;connectable=0;fillColor=none;top=0;left=0;bottom=0;right=0;align=left;spacingLeft=6;overflow=hidden;whiteSpace=wrap;html=1;" vertex="1" parent="5YLcJqBsJinkJbN5VngP-8">
                    <mxGeometry x="30" width="150" height="30" as="geometry">
                        <mxRectangle width="150" height="30" as="alternateBounds"/>
                    </mxGeometry>
                </mxCell>
                <mxCell id="5YLcJqBsJinkJbN5VngP-11" value="" style="shape=tableRow;horizontal=0;startSize=0;swimlaneHead=0;swimlaneBody=0;fillColor=none;collapsible=0;dropTarget=0;points=[[0,0.5],[1,0.5]];portConstraint=eastwest;top=0;left=0;right=0;bottom=0;" vertex="1" parent="5YLcJqBsJinkJbN5VngP-1">
                    <mxGeometry y="120" width="180" height="30" as="geometry"/>
                </mxCell>
                <mxCell id="5YLcJqBsJinkJbN5VngP-12" value="" style="shape=partialRectangle;connectable=0;fillColor=none;top=0;left=0;bottom=0;right=0;editable=1;overflow=hidden;whiteSpace=wrap;html=1;" vertex="1" parent="5YLcJqBsJinkJbN5VngP-11">
                    <mxGeometry width="30" height="30" as="geometry">
                        <mxRectangle width="30" height="30" as="alternateBounds"/>
                    </mxGeometry>
                </mxCell>
                <mxCell id="5YLcJqBsJinkJbN5VngP-13" value="나이" style="shape=partialRectangle;connectable=0;fillColor=none;top=0;left=0;bottom=0;right=0;align=left;spacingLeft=6;overflow=hidden;whiteSpace=wrap;html=1;" vertex="1" parent="5YLcJqBsJinkJbN5VngP-11">
                    <mxGeometry x="30" width="150" height="30" as="geometry">
                        <mxRectangle width="150" height="30" as="alternateBounds"/>
                    </mxGeometry>
                </mxCell>
                <mxCell id="5YLcJqBsJinkJbN5VngP-14" value="" style="shape=tableRow;horizontal=0;startSize=0;swimlaneHead=0;swimlaneBody=0;fillColor=none;collapsible=0;dropTarget=0;points=[[0,0.5],[1,0.5]];portConstraint=eastwest;top=0;left=0;right=0;bottom=0;" vertex="1" parent="5YLcJqBsJinkJbN5VngP-1">
                    <mxGeometry y="150" width="180" height="30" as="geometry"/>
                </mxCell>
                <mxCell id="5YLcJqBsJinkJbN5VngP-15" value="" style="shape=partialRectangle;connectable=0;fillColor=none;top=0;left=0;bottom=0;right=0;editable=1;overflow=hidden;whiteSpace=wrap;html=1;" vertex="1" parent="5YLcJqBsJinkJbN5VngP-14">
                    <mxGeometry width="30" height="30" as="geometry">
                        <mxRectangle width="30" height="30" as="alternateBounds"/>
                    </mxGeometry>
                </mxCell>
                <mxCell id="5YLcJqBsJinkJbN5VngP-16" value="직업" style="shape=partialRectangle;connectable=0;fillColor=none;top=0;left=0;bottom=0;right=0;align=left;spacingLeft=6;overflow=hidden;whiteSpace=wrap;html=1;" vertex="1" parent="5YLcJqBsJinkJbN5VngP-14">
                    <mxGeometry x="30" width="150" height="30" as="geometry">
                        <mxRectangle width="150" height="30" as="alternateBounds"/>
                    </mxGeometry>
                </mxCell>
                <mxCell id="5YLcJqBsJinkJbN5VngP-48" value="제조업체&lt;div&gt;&lt;br&gt;&lt;/div&gt;" style="shape=table;startSize=30;container=1;collapsible=1;childLayout=tableLayout;fixedRows=1;rowLines=0;fontStyle=1;align=center;resizeLast=1;html=1;" vertex="1" parent="1">
                    <mxGeometry x="450" y="61" width="180" height="179" as="geometry"/>
                </mxCell>
                <mxCell id="5YLcJqBsJinkJbN5VngP-49" value="" style="shape=tableRow;horizontal=0;startSize=0;swimlaneHead=0;swimlaneBody=0;fillColor=none;collapsible=0;dropTarget=0;points=[[0,0.5],[1,0.5]];portConstraint=eastwest;top=0;left=0;right=0;bottom=1;" vertex="1" parent="5YLcJqBsJinkJbN5VngP-48">
                    <mxGeometry y="30" width="180" height="30" as="geometry"/>
                </mxCell>
                <mxCell id="5YLcJqBsJinkJbN5VngP-50" value="PK" style="shape=partialRectangle;connectable=0;fillColor=none;top=0;left=0;bottom=0;right=0;fontStyle=1;overflow=hidden;whiteSpace=wrap;html=1;" vertex="1" parent="5YLcJqBsJinkJbN5VngP-49">
                    <mxGeometry width="30" height="30" as="geometry">
                        <mxRectangle width="30" height="30" as="alternateBounds"/>
                    </mxGeometry>
                </mxCell>
                <mxCell id="5YLcJqBsJinkJbN5VngP-51" value="업체코드" style="shape=partialRectangle;connectable=0;fillColor=none;top=0;left=0;bottom=0;right=0;align=left;spacingLeft=6;fontStyle=5;overflow=hidden;whiteSpace=wrap;html=1;" vertex="1" parent="5YLcJqBsJinkJbN5VngP-49">
                    <mxGeometry x="30" width="150" height="30" as="geometry">
                        <mxRectangle width="150" height="30" as="alternateBounds"/>
                    </mxGeometry>
                </mxCell>
                <mxCell id="5YLcJqBsJinkJbN5VngP-52" value="" style="shape=tableRow;horizontal=0;startSize=0;swimlaneHead=0;swimlaneBody=0;fillColor=none;collapsible=0;dropTarget=0;points=[[0,0.5],[1,0.5]];portConstraint=eastwest;top=0;left=0;right=0;bottom=0;" vertex="1" parent="5YLcJqBsJinkJbN5VngP-48">
                    <mxGeometry y="60" width="180" height="29" as="geometry"/>
                </mxCell>
                <mxCell id="5YLcJqBsJinkJbN5VngP-53" value="" style="shape=partialRectangle;connectable=0;fillColor=none;top=0;left=0;bottom=0;right=0;editable=1;overflow=hidden;whiteSpace=wrap;html=1;" vertex="1" parent="5YLcJqBsJinkJbN5VngP-52">
                    <mxGeometry width="30" height="29" as="geometry">
                        <mxRectangle width="30" height="29" as="alternateBounds"/>
                    </mxGeometry>
                </mxCell>
                <mxCell id="5YLcJqBsJinkJbN5VngP-54" value="업체명" style="shape=partialRectangle;connectable=0;fillColor=none;top=0;left=0;bottom=0;right=0;align=left;spacingLeft=6;overflow=hidden;whiteSpace=wrap;html=1;" vertex="1" parent="5YLcJqBsJinkJbN5VngP-52">
                    <mxGeometry x="30" width="150" height="29" as="geometry">
                        <mxRectangle width="150" height="29" as="alternateBounds"/>
                    </mxGeometry>
                </mxCell>
                <mxCell id="5YLcJqBsJinkJbN5VngP-55" value="" style="shape=tableRow;horizontal=0;startSize=0;swimlaneHead=0;swimlaneBody=0;fillColor=none;collapsible=0;dropTarget=0;points=[[0,0.5],[1,0.5]];portConstraint=eastwest;top=0;left=0;right=0;bottom=0;" vertex="1" parent="5YLcJqBsJinkJbN5VngP-48">
                    <mxGeometry y="89" width="180" height="30" as="geometry"/>
                </mxCell>
                <mxCell id="5YLcJqBsJinkJbN5VngP-56" value="" style="shape=partialRectangle;connectable=0;fillColor=none;top=0;left=0;bottom=0;right=0;editable=1;overflow=hidden;whiteSpace=wrap;html=1;" vertex="1" parent="5YLcJqBsJinkJbN5VngP-55">
                    <mxGeometry width="30" height="30" as="geometry">
                        <mxRectangle width="30" height="30" as="alternateBounds"/>
                    </mxGeometry>
                </mxCell>
                <mxCell id="5YLcJqBsJinkJbN5VngP-57" value="전화번호" style="shape=partialRectangle;connectable=0;fillColor=none;top=0;left=0;bottom=0;right=0;align=left;spacingLeft=6;overflow=hidden;whiteSpace=wrap;html=1;" vertex="1" parent="5YLcJqBsJinkJbN5VngP-55">
                    <mxGeometry x="30" width="150" height="30" as="geometry">
                        <mxRectangle width="150" height="30" as="alternateBounds"/>
                    </mxGeometry>
                </mxCell>
                <mxCell id="5YLcJqBsJinkJbN5VngP-58" value="" style="shape=tableRow;horizontal=0;startSize=0;swimlaneHead=0;swimlaneBody=0;fillColor=none;collapsible=0;dropTarget=0;points=[[0,0.5],[1,0.5]];portConstraint=eastwest;top=0;left=0;right=0;bottom=0;" vertex="1" parent="5YLcJqBsJinkJbN5VngP-48">
                    <mxGeometry y="119" width="180" height="30" as="geometry"/>
                </mxCell>
                <mxCell id="5YLcJqBsJinkJbN5VngP-59" value="" style="shape=partialRectangle;connectable=0;fillColor=none;top=0;left=0;bottom=0;right=0;editable=1;overflow=hidden;whiteSpace=wrap;html=1;" vertex="1" parent="5YLcJqBsJinkJbN5VngP-58">
                    <mxGeometry width="30" height="30" as="geometry">
                        <mxRectangle width="30" height="30" as="alternateBounds"/>
                    </mxGeometry>
                </mxCell>
                <mxCell id="5YLcJqBsJinkJbN5VngP-60" value="위치" style="shape=partialRectangle;connectable=0;fillColor=none;top=0;left=0;bottom=0;right=0;align=left;spacingLeft=6;overflow=hidden;whiteSpace=wrap;html=1;" vertex="1" parent="5YLcJqBsJinkJbN5VngP-58">
                    <mxGeometry x="30" width="150" height="30" as="geometry">
                        <mxRectangle width="150" height="30" as="alternateBounds"/>
                    </mxGeometry>
                </mxCell>
                <mxCell id="5YLcJqBsJinkJbN5VngP-61" value="" style="shape=tableRow;horizontal=0;startSize=0;swimlaneHead=0;swimlaneBody=0;fillColor=none;collapsible=0;dropTarget=0;points=[[0,0.5],[1,0.5]];portConstraint=eastwest;top=0;left=0;right=0;bottom=0;" vertex="1" parent="5YLcJqBsJinkJbN5VngP-48">
                    <mxGeometry y="149" width="180" height="30" as="geometry"/>
                </mxCell>
                <mxCell id="5YLcJqBsJinkJbN5VngP-62" value="" style="shape=partialRectangle;connectable=0;fillColor=none;top=0;left=0;bottom=0;right=0;editable=1;overflow=hidden;whiteSpace=wrap;html=1;" vertex="1" parent="5YLcJqBsJinkJbN5VngP-61">
                    <mxGeometry width="30" height="30" as="geometry">
                        <mxRectangle width="30" height="30" as="alternateBounds"/>
                    </mxGeometry>
                </mxCell>
                <mxCell id="5YLcJqBsJinkJbN5VngP-63" value="담당자" style="shape=partialRectangle;connectable=0;fillColor=none;top=0;left=0;bottom=0;right=0;align=left;spacingLeft=6;overflow=hidden;whiteSpace=wrap;html=1;" vertex="1" parent="5YLcJqBsJinkJbN5VngP-61">
                    <mxGeometry x="30" width="150" height="30" as="geometry">
                        <mxRectangle width="150" height="30" as="alternateBounds"/>
                    </mxGeometry>
                </mxCell>
                <mxCell id="5YLcJqBsJinkJbN5VngP-593" value="주문" style="shape=table;startSize=30;container=1;collapsible=1;childLayout=tableLayout;fixedRows=1;rowLines=0;fontStyle=1;align=center;resizeLast=1;html=1;whiteSpace=wrap;" vertex="1" parent="1">
                    <mxGeometry x="250" y="270" width="180" height="210" as="geometry"/>
                </mxCell>
                <mxCell id="5YLcJqBsJinkJbN5VngP-594" value="" style="shape=tableRow;horizontal=0;startSize=0;swimlaneHead=0;swimlaneBody=0;fillColor=none;collapsible=0;dropTarget=0;points=[[0,0.5],[1,0.5]];portConstraint=eastwest;top=0;left=0;right=0;bottom=0;html=1;" vertex="1" parent="5YLcJqBsJinkJbN5VngP-593">
                    <mxGeometry y="30" width="180" height="30" as="geometry"/>
                </mxCell>
                <mxCell id="5YLcJqBsJinkJbN5VngP-595" value="PK" style="shape=partialRectangle;connectable=0;fillColor=none;top=0;left=0;bottom=0;right=0;fontStyle=1;overflow=hidden;html=1;whiteSpace=wrap;" vertex="1" parent="5YLcJqBsJinkJbN5VngP-594">
                    <mxGeometry width="60" height="30" as="geometry">
                        <mxRectangle width="60" height="30" as="alternateBounds"/>
                    </mxGeometry>
                </mxCell>
                <mxCell id="5YLcJqBsJinkJbN5VngP-596" value="주문번호" style="shape=partialRectangle;connectable=0;fillColor=none;top=0;left=0;bottom=0;right=0;align=left;spacingLeft=6;fontStyle=5;overflow=hidden;html=1;whiteSpace=wrap;" vertex="1" parent="5YLcJqBsJinkJbN5VngP-594">
                    <mxGeometry x="60" width="120" height="30" as="geometry">
                        <mxRectangle width="120" height="30" as="alternateBounds"/>
                    </mxGeometry>
                </mxCell>
                <mxCell id="5YLcJqBsJinkJbN5VngP-597" value="" style="shape=tableRow;horizontal=0;startSize=0;swimlaneHead=0;swimlaneBody=0;fillColor=none;collapsible=0;dropTarget=0;points=[[0,0.5],[1,0.5]];portConstraint=eastwest;top=0;left=0;right=0;bottom=1;html=1;" vertex="1" parent="5YLcJqBsJinkJbN5VngP-593">
                    <mxGeometry y="60" width="180" height="30" as="geometry"/>
                </mxCell>
                <mxCell id="5YLcJqBsJinkJbN5VngP-598" value="FK" style="shape=partialRectangle;connectable=0;fillColor=none;top=0;left=0;bottom=0;right=0;fontStyle=1;overflow=hidden;html=1;whiteSpace=wrap;" vertex="1" parent="5YLcJqBsJinkJbN5VngP-597">
                    <mxGeometry width="60" height="30" as="geometry">
                        <mxRectangle width="60" height="30" as="alternateBounds"/>
                    </mxGeometry>
                </mxCell>
                <mxCell id="5YLcJqBsJinkJbN5VngP-599" value="상품번호" style="shape=partialRectangle;connectable=0;fillColor=none;top=0;left=0;bottom=0;right=0;align=left;spacingLeft=6;fontStyle=5;overflow=hidden;html=1;whiteSpace=wrap;" vertex="1" parent="5YLcJqBsJinkJbN5VngP-597">
                    <mxGeometry x="60" width="120" height="30" as="geometry">
                        <mxRectangle width="120" height="30" as="alternateBounds"/>
                    </mxGeometry>
                </mxCell>
                <mxCell id="5YLcJqBsJinkJbN5VngP-600" value="" style="shape=tableRow;horizontal=0;startSize=0;swimlaneHead=0;swimlaneBody=0;fillColor=none;collapsible=0;dropTarget=0;points=[[0,0.5],[1,0.5]];portConstraint=eastwest;top=0;left=0;right=0;bottom=0;html=1;" vertex="1" parent="5YLcJqBsJinkJbN5VngP-593">
                    <mxGeometry y="90" width="180" height="30" as="geometry"/>
                </mxCell>
                <mxCell id="5YLcJqBsJinkJbN5VngP-601" value="" style="shape=partialRectangle;connectable=0;fillColor=none;top=0;left=0;bottom=0;right=0;editable=1;overflow=hidden;html=1;whiteSpace=wrap;" vertex="1" parent="5YLcJqBsJinkJbN5VngP-600">
                    <mxGeometry width="60" height="30" as="geometry">
                        <mxRectangle width="60" height="30" as="alternateBounds"/>
                    </mxGeometry>
                </mxCell>
                <mxCell id="5YLcJqBsJinkJbN5VngP-602" value="주문수량" style="shape=partialRectangle;connectable=0;fillColor=none;top=0;left=0;bottom=0;right=0;align=left;spacingLeft=6;overflow=hidden;html=1;whiteSpace=wrap;" vertex="1" parent="5YLcJqBsJinkJbN5VngP-600">
                    <mxGeometry x="60" width="120" height="30" as="geometry">
                        <mxRectangle width="120" height="30" as="alternateBounds"/>
                    </mxGeometry>
                </mxCell>
                <mxCell id="5YLcJqBsJinkJbN5VngP-603" value="" style="shape=tableRow;horizontal=0;startSize=0;swimlaneHead=0;swimlaneBody=0;fillColor=none;collapsible=0;dropTarget=0;points=[[0,0.5],[1,0.5]];portConstraint=eastwest;top=0;left=0;right=0;bottom=0;html=1;" vertex="1" parent="5YLcJqBsJinkJbN5VngP-593">
                    <mxGeometry y="120" width="180" height="30" as="geometry"/>
                </mxCell>
                <mxCell id="5YLcJqBsJinkJbN5VngP-604" value="" style="shape=partialRectangle;connectable=0;fillColor=none;top=0;left=0;bottom=0;right=0;editable=1;overflow=hidden;html=1;whiteSpace=wrap;" vertex="1" parent="5YLcJqBsJinkJbN5VngP-603">
                    <mxGeometry width="60" height="30" as="geometry">
                        <mxRectangle width="60" height="30" as="alternateBounds"/>
                    </mxGeometry>
                </mxCell>
                <mxCell id="5YLcJqBsJinkJbN5VngP-605" value="기본주소" style="shape=partialRectangle;connectable=0;fillColor=none;top=0;left=0;bottom=0;right=0;align=left;spacingLeft=6;overflow=hidden;html=1;whiteSpace=wrap;" vertex="1" parent="5YLcJqBsJinkJbN5VngP-603">
                    <mxGeometry x="60" width="120" height="30" as="geometry">
                        <mxRectangle width="120" height="30" as="alternateBounds"/>
                    </mxGeometry>
                </mxCell>
                <mxCell id="lZo8j7GWwApK5tldWe90-39" value="" style="shape=tableRow;horizontal=0;startSize=0;swimlaneHead=0;swimlaneBody=0;fillColor=none;collapsible=0;dropTarget=0;points=[[0,0.5],[1,0.5]];portConstraint=eastwest;top=0;left=0;right=0;bottom=0;html=1;" vertex="1" parent="5YLcJqBsJinkJbN5VngP-593">
                    <mxGeometry y="150" width="180" height="30" as="geometry"/>
                </mxCell>
                <mxCell id="lZo8j7GWwApK5tldWe90-40" value="" style="shape=partialRectangle;connectable=0;fillColor=none;top=0;left=0;bottom=0;right=0;editable=1;overflow=hidden;html=1;whiteSpace=wrap;" vertex="1" parent="lZo8j7GWwApK5tldWe90-39">
                    <mxGeometry width="60" height="30" as="geometry">
                        <mxRectangle width="60" height="30" as="alternateBounds"/>
                    </mxGeometry>
                </mxCell>
                <mxCell id="lZo8j7GWwApK5tldWe90-41" value="상세주소" style="shape=partialRectangle;connectable=0;fillColor=none;top=0;left=0;bottom=0;right=0;align=left;spacingLeft=6;overflow=hidden;html=1;whiteSpace=wrap;" vertex="1" parent="lZo8j7GWwApK5tldWe90-39">
                    <mxGeometry x="60" width="120" height="30" as="geometry">
                        <mxRectangle width="120" height="30" as="alternateBounds"/>
                    </mxGeometry>
                </mxCell>
                <mxCell id="gQ6Y4zEdGOEhUa3ETVNn-1" value="" style="shape=tableRow;horizontal=0;startSize=0;swimlaneHead=0;swimlaneBody=0;fillColor=none;collapsible=0;dropTarget=0;points=[[0,0.5],[1,0.5]];portConstraint=eastwest;top=0;left=0;right=0;bottom=0;html=1;" vertex="1" parent="5YLcJqBsJinkJbN5VngP-593">
                    <mxGeometry y="180" width="180" height="30" as="geometry"/>
                </mxCell>
                <mxCell id="gQ6Y4zEdGOEhUa3ETVNn-2" value="" style="shape=partialRectangle;connectable=0;fillColor=none;top=0;left=0;bottom=0;right=0;editable=1;overflow=hidden;html=1;whiteSpace=wrap;" vertex="1" parent="gQ6Y4zEdGOEhUa3ETVNn-1">
                    <mxGeometry width="60" height="30" as="geometry">
                        <mxRectangle width="60" height="30" as="alternateBounds"/>
                    </mxGeometry>
                </mxCell>
                <mxCell id="gQ6Y4zEdGOEhUa3ETVNn-3" value="주문일자" style="shape=partialRectangle;connectable=0;fillColor=none;top=0;left=0;bottom=0;right=0;align=left;spacingLeft=6;overflow=hidden;html=1;whiteSpace=wrap;" vertex="1" parent="gQ6Y4zEdGOEhUa3ETVNn-1">
                    <mxGeometry x="60" width="120" height="30" as="geometry">
                        <mxRectangle width="120" height="30" as="alternateBounds"/>
                    </mxGeometry>
                </mxCell>
                <mxCell id="TpX9jsOrIHt6Qc6FVz2d-54" value="상품" style="shape=table;startSize=30;container=1;collapsible=1;childLayout=tableLayout;fixedRows=1;rowLines=0;fontStyle=1;align=center;resizeLast=1;html=1;" vertex="1" parent="1">
                    <mxGeometry x="450" y="270" width="190" height="240" as="geometry"/>
                </mxCell>
                <mxCell id="TpX9jsOrIHt6Qc6FVz2d-55" value="" style="shape=tableRow;horizontal=0;startSize=0;swimlaneHead=0;swimlaneBody=0;fillColor=none;collapsible=0;dropTarget=0;points=[[0,0.5],[1,0.5]];portConstraint=eastwest;top=0;left=0;right=0;bottom=1;" vertex="1" parent="TpX9jsOrIHt6Qc6FVz2d-54">
                    <mxGeometry y="30" width="190" height="30" as="geometry"/>
                </mxCell>
                <mxCell id="TpX9jsOrIHt6Qc6FVz2d-56" value="PK" style="shape=partialRectangle;connectable=0;fillColor=none;top=0;left=0;bottom=0;right=0;fontStyle=1;overflow=hidden;whiteSpace=wrap;html=1;" vertex="1" parent="TpX9jsOrIHt6Qc6FVz2d-55">
                    <mxGeometry width="30" height="30" as="geometry">
                        <mxRectangle width="30" height="30" as="alternateBounds"/>
                    </mxGeometry>
                </mxCell>
                <mxCell id="TpX9jsOrIHt6Qc6FVz2d-57" value="상품번호" style="shape=partialRectangle;connectable=0;fillColor=none;top=0;left=0;bottom=0;right=0;align=left;spacingLeft=6;fontStyle=5;overflow=hidden;whiteSpace=wrap;html=1;" vertex="1" parent="TpX9jsOrIHt6Qc6FVz2d-55">
                    <mxGeometry x="30" width="160" height="30" as="geometry">
                        <mxRectangle width="160" height="30" as="alternateBounds"/>
                    </mxGeometry>
                </mxCell>
                <mxCell id="gsN3HV_j6TI3Fi63ussc-41" value="" style="shape=tableRow;horizontal=0;startSize=0;swimlaneHead=0;swimlaneBody=0;fillColor=none;collapsible=0;dropTarget=0;points=[[0,0.5],[1,0.5]];portConstraint=eastwest;top=0;left=0;right=0;bottom=1;" vertex="1" parent="TpX9jsOrIHt6Qc6FVz2d-54">
                    <mxGeometry y="60" width="190" height="30" as="geometry"/>
                </mxCell>
                <mxCell id="gsN3HV_j6TI3Fi63ussc-42" value="FK" style="shape=partialRectangle;connectable=0;fillColor=none;top=0;left=0;bottom=0;right=0;fontStyle=1;overflow=hidden;whiteSpace=wrap;html=1;" vertex="1" parent="gsN3HV_j6TI3Fi63ussc-41">
                    <mxGeometry width="30" height="30" as="geometry">
                        <mxRectangle width="30" height="30" as="alternateBounds"/>
                    </mxGeometry>
                </mxCell>
                <mxCell id="gsN3HV_j6TI3Fi63ussc-43" value="업체코드" style="shape=partialRectangle;connectable=0;fillColor=none;top=0;left=0;bottom=0;right=0;align=left;spacingLeft=6;fontStyle=5;overflow=hidden;whiteSpace=wrap;html=1;" vertex="1" parent="gsN3HV_j6TI3Fi63ussc-41">
                    <mxGeometry x="30" width="160" height="30" as="geometry">
                        <mxRectangle width="160" height="30" as="alternateBounds"/>
                    </mxGeometry>
                </mxCell>
                <mxCell id="TpX9jsOrIHt6Qc6FVz2d-61" value="" style="shape=tableRow;horizontal=0;startSize=0;swimlaneHead=0;swimlaneBody=0;fillColor=none;collapsible=0;dropTarget=0;points=[[0,0.5],[1,0.5]];portConstraint=eastwest;top=0;left=0;right=0;bottom=0;" vertex="1" parent="TpX9jsOrIHt6Qc6FVz2d-54">
                    <mxGeometry y="90" width="190" height="30" as="geometry"/>
                </mxCell>
                <mxCell id="TpX9jsOrIHt6Qc6FVz2d-62" value="" style="shape=partialRectangle;connectable=0;fillColor=none;top=0;left=0;bottom=0;right=0;editable=1;overflow=hidden;whiteSpace=wrap;html=1;" vertex="1" parent="TpX9jsOrIHt6Qc6FVz2d-61">
                    <mxGeometry width="30" height="30" as="geometry">
                        <mxRectangle width="30" height="30" as="alternateBounds"/>
                    </mxGeometry>
                </mxCell>
                <mxCell id="TpX9jsOrIHt6Qc6FVz2d-63" value="상품명" style="shape=partialRectangle;connectable=0;fillColor=none;top=0;left=0;bottom=0;right=0;align=left;spacingLeft=6;overflow=hidden;whiteSpace=wrap;html=1;" vertex="1" parent="TpX9jsOrIHt6Qc6FVz2d-61">
                    <mxGeometry x="30" width="160" height="30" as="geometry">
                        <mxRectangle width="160" height="30" as="alternateBounds"/>
                    </mxGeometry>
                </mxCell>
                <mxCell id="TpX9jsOrIHt6Qc6FVz2d-64" value="" style="shape=tableRow;horizontal=0;startSize=0;swimlaneHead=0;swimlaneBody=0;fillColor=none;collapsible=0;dropTarget=0;points=[[0,0.5],[1,0.5]];portConstraint=eastwest;top=0;left=0;right=0;bottom=0;" vertex="1" parent="TpX9jsOrIHt6Qc6FVz2d-54">
                    <mxGeometry y="120" width="190" height="30" as="geometry"/>
                </mxCell>
                <mxCell id="TpX9jsOrIHt6Qc6FVz2d-65" value="" style="shape=partialRectangle;connectable=0;fillColor=none;top=0;left=0;bottom=0;right=0;editable=1;overflow=hidden;whiteSpace=wrap;html=1;" vertex="1" parent="TpX9jsOrIHt6Qc6FVz2d-64">
                    <mxGeometry width="30" height="30" as="geometry">
                        <mxRectangle width="30" height="30" as="alternateBounds"/>
                    </mxGeometry>
                </mxCell>
                <mxCell id="TpX9jsOrIHt6Qc6FVz2d-66" value="재고량" style="shape=partialRectangle;connectable=0;fillColor=none;top=0;left=0;bottom=0;right=0;align=left;spacingLeft=6;overflow=hidden;whiteSpace=wrap;html=1;" vertex="1" parent="TpX9jsOrIHt6Qc6FVz2d-64">
                    <mxGeometry x="30" width="160" height="30" as="geometry">
                        <mxRectangle width="160" height="30" as="alternateBounds"/>
                    </mxGeometry>
                </mxCell>
                <mxCell id="TpX9jsOrIHt6Qc6FVz2d-67" value="" style="shape=tableRow;horizontal=0;startSize=0;swimlaneHead=0;swimlaneBody=0;fillColor=none;collapsible=0;dropTarget=0;points=[[0,0.5],[1,0.5]];portConstraint=eastwest;top=0;left=0;right=0;bottom=0;" vertex="1" parent="TpX9jsOrIHt6Qc6FVz2d-54">
                    <mxGeometry y="150" width="190" height="30" as="geometry"/>
                </mxCell>
                <mxCell id="TpX9jsOrIHt6Qc6FVz2d-68" value="" style="shape=partialRectangle;connectable=0;fillColor=none;top=0;left=0;bottom=0;right=0;editable=1;overflow=hidden;whiteSpace=wrap;html=1;" vertex="1" parent="TpX9jsOrIHt6Qc6FVz2d-67">
                    <mxGeometry width="30" height="30" as="geometry">
                        <mxRectangle width="30" height="30" as="alternateBounds"/>
                    </mxGeometry>
                </mxCell>
                <mxCell id="TpX9jsOrIHt6Qc6FVz2d-69" value="단가" style="shape=partialRectangle;connectable=0;fillColor=none;top=0;left=0;bottom=0;right=0;align=left;spacingLeft=6;overflow=hidden;whiteSpace=wrap;html=1;" vertex="1" parent="TpX9jsOrIHt6Qc6FVz2d-67">
                    <mxGeometry x="30" width="160" height="30" as="geometry">
                        <mxRectangle width="160" height="30" as="alternateBounds"/>
                    </mxGeometry>
                </mxCell>
                <mxCell id="TpX9jsOrIHt6Qc6FVz2d-70" value="" style="shape=tableRow;horizontal=0;startSize=0;swimlaneHead=0;swimlaneBody=0;fillColor=none;collapsible=0;dropTarget=0;points=[[0,0.5],[1,0.5]];portConstraint=eastwest;top=0;left=0;right=0;bottom=0;" vertex="1" parent="TpX9jsOrIHt6Qc6FVz2d-54">
                    <mxGeometry y="180" width="190" height="30" as="geometry"/>
                </mxCell>
                <mxCell id="TpX9jsOrIHt6Qc6FVz2d-71" value="" style="shape=partialRectangle;connectable=0;fillColor=none;top=0;left=0;bottom=0;right=0;editable=1;overflow=hidden;whiteSpace=wrap;html=1;" vertex="1" parent="TpX9jsOrIHt6Qc6FVz2d-70">
                    <mxGeometry width="30" height="30" as="geometry">
                        <mxRectangle width="30" height="30" as="alternateBounds"/>
                    </mxGeometry>
                </mxCell>
                <mxCell id="TpX9jsOrIHt6Qc6FVz2d-72" value="공급일자" style="shape=partialRectangle;connectable=0;fillColor=none;top=0;left=0;bottom=0;right=0;align=left;spacingLeft=6;overflow=hidden;whiteSpace=wrap;html=1;" vertex="1" parent="TpX9jsOrIHt6Qc6FVz2d-70">
                    <mxGeometry x="30" width="160" height="30" as="geometry">
                        <mxRectangle width="160" height="30" as="alternateBounds"/>
                    </mxGeometry>
                </mxCell>
                <mxCell id="TpX9jsOrIHt6Qc6FVz2d-73" value="" style="shape=tableRow;horizontal=0;startSize=0;swimlaneHead=0;swimlaneBody=0;fillColor=none;collapsible=0;dropTarget=0;points=[[0,0.5],[1,0.5]];portConstraint=eastwest;top=0;left=0;right=0;bottom=0;" vertex="1" parent="TpX9jsOrIHt6Qc6FVz2d-54">
                    <mxGeometry y="210" width="190" height="30" as="geometry"/>
                </mxCell>
                <mxCell id="TpX9jsOrIHt6Qc6FVz2d-74" value="" style="shape=partialRectangle;connectable=0;fillColor=none;top=0;left=0;bottom=0;right=0;editable=1;overflow=hidden;whiteSpace=wrap;html=1;" vertex="1" parent="TpX9jsOrIHt6Qc6FVz2d-73">
                    <mxGeometry width="30" height="30" as="geometry">
                        <mxRectangle width="30" height="30" as="alternateBounds"/>
                    </mxGeometry>
                </mxCell>
                <mxCell id="TpX9jsOrIHt6Qc6FVz2d-75" value="공급량" style="shape=partialRectangle;connectable=0;fillColor=none;top=0;left=0;bottom=0;right=0;align=left;spacingLeft=6;overflow=hidden;whiteSpace=wrap;html=1;" vertex="1" parent="TpX9jsOrIHt6Qc6FVz2d-73">
                    <mxGeometry x="30" width="160" height="30" as="geometry">
                        <mxRectangle width="160" height="30" as="alternateBounds"/>
                    </mxGeometry>
                </mxCell>
                <mxCell id="lZo8j7GWwApK5tldWe90-58" value="Table" style="shape=table;startSize=30;container=1;collapsible=1;childLayout=tableLayout;fixedRows=1;rowLines=0;fontStyle=1;align=center;resizeLast=1;html=1;whiteSpace=wrap;" vertex="1" parent="1">
                    <mxGeometry x="650" y="61" width="180" height="170" as="geometry"/>
                </mxCell>
                <mxCell id="lZo8j7GWwApK5tldWe90-59" value="" style="shape=tableRow;horizontal=0;startSize=0;swimlaneHead=0;swimlaneBody=0;fillColor=none;collapsible=0;dropTarget=0;points=[[0,0.5],[1,0.5]];portConstraint=eastwest;top=0;left=0;right=0;bottom=0;html=1;" vertex="1" parent="lZo8j7GWwApK5tldWe90-58">
                    <mxGeometry y="30" width="180" height="20" as="geometry"/>
                </mxCell>
                <mxCell id="lZo8j7GWwApK5tldWe90-60" value="PK" style="shape=partialRectangle;connectable=0;fillColor=none;top=0;left=0;bottom=0;right=0;fontStyle=1;overflow=hidden;html=1;whiteSpace=wrap;" vertex="1" parent="lZo8j7GWwApK5tldWe90-59">
                    <mxGeometry width="60" height="20" as="geometry">
                        <mxRectangle width="60" height="20" as="alternateBounds"/>
                    </mxGeometry>
                </mxCell>
                <mxCell id="lZo8j7GWwApK5tldWe90-61" value="게시글" style="shape=partialRectangle;connectable=0;fillColor=none;top=0;left=0;bottom=0;right=0;align=left;spacingLeft=6;fontStyle=5;overflow=hidden;html=1;whiteSpace=wrap;" vertex="1" parent="lZo8j7GWwApK5tldWe90-59">
                    <mxGeometry x="60" width="120" height="20" as="geometry">
                        <mxRectangle width="120" height="20" as="alternateBounds"/>
                    </mxGeometry>
                </mxCell>
                <mxCell id="lZo8j7GWwApK5tldWe90-62" value="" style="shape=tableRow;horizontal=0;startSize=0;swimlaneHead=0;swimlaneBody=0;fillColor=none;collapsible=0;dropTarget=0;points=[[0,0.5],[1,0.5]];portConstraint=eastwest;top=0;left=0;right=0;bottom=1;html=1;" vertex="1" parent="lZo8j7GWwApK5tldWe90-58">
                    <mxGeometry y="50" width="180" height="30" as="geometry"/>
                </mxCell>
                <mxCell id="lZo8j7GWwApK5tldWe90-63" value="FK" style="shape=partialRectangle;connectable=0;fillColor=none;top=0;left=0;bottom=0;right=0;fontStyle=1;overflow=hidden;html=1;whiteSpace=wrap;" vertex="1" parent="lZo8j7GWwApK5tldWe90-62">
                    <mxGeometry width="60" height="30" as="geometry">
                        <mxRectangle width="60" height="30" as="alternateBounds"/>
                    </mxGeometry>
                </mxCell>
                <mxCell id="lZo8j7GWwApK5tldWe90-64" value="회원아이디" style="shape=partialRectangle;connectable=0;fillColor=none;top=0;left=0;bottom=0;right=0;align=left;spacingLeft=6;fontStyle=5;overflow=hidden;html=1;whiteSpace=wrap;" vertex="1" parent="lZo8j7GWwApK5tldWe90-62">
                    <mxGeometry x="60" width="120" height="30" as="geometry">
                        <mxRectangle width="120" height="30" as="alternateBounds"/>
                    </mxGeometry>
                </mxCell>
                <mxCell id="lZo8j7GWwApK5tldWe90-65" value="" style="shape=tableRow;horizontal=0;startSize=0;swimlaneHead=0;swimlaneBody=0;fillColor=none;collapsible=0;dropTarget=0;points=[[0,0.5],[1,0.5]];portConstraint=eastwest;top=0;left=0;right=0;bottom=0;html=1;" vertex="1" parent="lZo8j7GWwApK5tldWe90-58">
                    <mxGeometry y="80" width="180" height="30" as="geometry"/>
                </mxCell>
                <mxCell id="lZo8j7GWwApK5tldWe90-66" value="" style="shape=partialRectangle;connectable=0;fillColor=none;top=0;left=0;bottom=0;right=0;editable=1;overflow=hidden;html=1;whiteSpace=wrap;" vertex="1" parent="lZo8j7GWwApK5tldWe90-65">
                    <mxGeometry width="60" height="30" as="geometry">
                        <mxRectangle width="60" height="30" as="alternateBounds"/>
                    </mxGeometry>
                </mxCell>
                <mxCell id="lZo8j7GWwApK5tldWe90-67" value="제목" style="shape=partialRectangle;connectable=0;fillColor=none;top=0;left=0;bottom=0;right=0;align=left;spacingLeft=6;overflow=hidden;html=1;whiteSpace=wrap;" vertex="1" parent="lZo8j7GWwApK5tldWe90-65">
                    <mxGeometry x="60" width="120" height="30" as="geometry">
                        <mxRectangle width="120" height="30" as="alternateBounds"/>
                    </mxGeometry>
                </mxCell>
                <mxCell id="lZo8j7GWwApK5tldWe90-68" value="" style="shape=tableRow;horizontal=0;startSize=0;swimlaneHead=0;swimlaneBody=0;fillColor=none;collapsible=0;dropTarget=0;points=[[0,0.5],[1,0.5]];portConstraint=eastwest;top=0;left=0;right=0;bottom=0;html=1;" vertex="1" parent="lZo8j7GWwApK5tldWe90-58">
                    <mxGeometry y="110" width="180" height="30" as="geometry"/>
                </mxCell>
                <mxCell id="lZo8j7GWwApK5tldWe90-69" value="" style="shape=partialRectangle;connectable=0;fillColor=none;top=0;left=0;bottom=0;right=0;editable=1;overflow=hidden;html=1;whiteSpace=wrap;" vertex="1" parent="lZo8j7GWwApK5tldWe90-68">
                    <mxGeometry width="60" height="30" as="geometry">
                        <mxRectangle width="60" height="30" as="alternateBounds"/>
                    </mxGeometry>
                </mxCell>
                <mxCell id="lZo8j7GWwApK5tldWe90-70" value="내용" style="shape=partialRectangle;connectable=0;fillColor=none;top=0;left=0;bottom=0;right=0;align=left;spacingLeft=6;overflow=hidden;html=1;whiteSpace=wrap;" vertex="1" parent="lZo8j7GWwApK5tldWe90-68">
                    <mxGeometry x="60" width="120" height="30" as="geometry">
                        <mxRectangle width="120" height="30" as="alternateBounds"/>
                    </mxGeometry>
                </mxCell>
                <mxCell id="lZo8j7GWwApK5tldWe90-71" value="" style="shape=tableRow;horizontal=0;startSize=0;swimlaneHead=0;swimlaneBody=0;fillColor=none;collapsible=0;dropTarget=0;points=[[0,0.5],[1,0.5]];portConstraint=eastwest;top=0;left=0;right=0;bottom=0;html=1;" vertex="1" parent="lZo8j7GWwApK5tldWe90-58">
                    <mxGeometry y="140" width="180" height="30" as="geometry"/>
                </mxCell>
                <mxCell id="lZo8j7GWwApK5tldWe90-72" value="" style="shape=partialRectangle;connectable=0;fillColor=none;top=0;left=0;bottom=0;right=0;editable=1;overflow=hidden;html=1;whiteSpace=wrap;" vertex="1" parent="lZo8j7GWwApK5tldWe90-71">
                    <mxGeometry width="60" height="30" as="geometry">
                        <mxRectangle width="60" height="30" as="alternateBounds"/>
                    </mxGeometry>
                </mxCell>
                <mxCell id="lZo8j7GWwApK5tldWe90-73" value="게시글" style="shape=partialRectangle;connectable=0;fillColor=none;top=0;left=0;bottom=0;right=0;align=left;spacingLeft=6;overflow=hidden;html=1;whiteSpace=wrap;" vertex="1" parent="lZo8j7GWwApK5tldWe90-71">
                    <mxGeometry x="60" width="120" height="30" as="geometry">
                        <mxRectangle width="120" height="30" as="alternateBounds"/>
                    </mxGeometry>
                </mxCell>
                <mxCell id="lZo8j7GWwApK5tldWe90-74" value="" style="endArrow=none;html=1;rounded=0;entryX=1.016;entryY=-0.03;entryDx=0;entryDy=0;entryPerimeter=0;" edge="1" parent="1" target="lZo8j7GWwApK5tldWe90-62">
                    <mxGeometry relative="1" as="geometry">
                        <mxPoint x="640" y="110" as="sourcePoint"/>
                        <mxPoint x="800" y="110" as="targetPoint"/>
                    </mxGeometry>
                </mxCell>
                <mxCell id="gsN3HV_j6TI3Fi63ussc-1" value="제품색상" style="shape=table;startSize=30;container=1;collapsible=1;childLayout=tableLayout;fixedRows=1;rowLines=0;fontStyle=1;align=center;resizeLast=1;html=1;" vertex="1" parent="1">
                    <mxGeometry x="660" y="280" width="180" height="120" as="geometry"/>
                </mxCell>
                <mxCell id="gsN3HV_j6TI3Fi63ussc-2" value="" style="shape=tableRow;horizontal=0;startSize=0;swimlaneHead=0;swimlaneBody=0;fillColor=none;collapsible=0;dropTarget=0;points=[[0,0.5],[1,0.5]];portConstraint=eastwest;top=0;left=0;right=0;bottom=1;" vertex="1" parent="gsN3HV_j6TI3Fi63ussc-1">
                    <mxGeometry y="30" width="180" height="30" as="geometry"/>
                </mxCell>
                <mxCell id="gsN3HV_j6TI3Fi63ussc-3" value="PK" style="shape=partialRectangle;connectable=0;fillColor=none;top=0;left=0;bottom=0;right=0;fontStyle=1;overflow=hidden;whiteSpace=wrap;html=1;" vertex="1" parent="gsN3HV_j6TI3Fi63ussc-2">
                    <mxGeometry width="30" height="30" as="geometry">
                        <mxRectangle width="30" height="30" as="alternateBounds"/>
                    </mxGeometry>
                </mxCell>
                <mxCell id="gsN3HV_j6TI3Fi63ussc-4" value="NO" style="shape=partialRectangle;connectable=0;fillColor=none;top=0;left=0;bottom=0;right=0;align=left;spacingLeft=6;fontStyle=5;overflow=hidden;whiteSpace=wrap;html=1;" vertex="1" parent="gsN3HV_j6TI3Fi63ussc-2">
                    <mxGeometry x="30" width="150" height="30" as="geometry">
                        <mxRectangle width="150" height="30" as="alternateBounds"/>
                    </mxGeometry>
                </mxCell>
                <mxCell id="gsN3HV_j6TI3Fi63ussc-17" value="" style="shape=tableRow;horizontal=0;startSize=0;swimlaneHead=0;swimlaneBody=0;fillColor=none;collapsible=0;dropTarget=0;points=[[0,0.5],[1,0.5]];portConstraint=eastwest;top=0;left=0;right=0;bottom=1;" vertex="1" parent="gsN3HV_j6TI3Fi63ussc-1">
                    <mxGeometry y="60" width="180" height="30" as="geometry"/>
                </mxCell>
                <mxCell id="gsN3HV_j6TI3Fi63ussc-18" value="PK" style="shape=partialRectangle;connectable=0;fillColor=none;top=0;left=0;bottom=0;right=0;fontStyle=1;overflow=hidden;whiteSpace=wrap;html=1;" vertex="1" parent="gsN3HV_j6TI3Fi63ussc-17">
                    <mxGeometry width="30" height="30" as="geometry">
                        <mxRectangle width="30" height="30" as="alternateBounds"/>
                    </mxGeometry>
                </mxCell>
                <mxCell id="gsN3HV_j6TI3Fi63ussc-19" value="제품아이디" style="shape=partialRectangle;connectable=0;fillColor=none;top=0;left=0;bottom=0;right=0;align=left;spacingLeft=6;fontStyle=5;overflow=hidden;whiteSpace=wrap;html=1;" vertex="1" parent="gsN3HV_j6TI3Fi63ussc-17">
                    <mxGeometry x="30" width="150" height="30" as="geometry">
                        <mxRectangle width="150" height="30" as="alternateBounds"/>
                    </mxGeometry>
                </mxCell>
                <mxCell id="gsN3HV_j6TI3Fi63ussc-5" value="" style="shape=tableRow;horizontal=0;startSize=0;swimlaneHead=0;swimlaneBody=0;fillColor=none;collapsible=0;dropTarget=0;points=[[0,0.5],[1,0.5]];portConstraint=eastwest;top=0;left=0;right=0;bottom=0;" vertex="1" parent="gsN3HV_j6TI3Fi63ussc-1">
                    <mxGeometry y="90" width="180" height="30" as="geometry"/>
                </mxCell>
                <mxCell id="gsN3HV_j6TI3Fi63ussc-6" value="" style="shape=partialRectangle;connectable=0;fillColor=none;top=0;left=0;bottom=0;right=0;editable=1;overflow=hidden;whiteSpace=wrap;html=1;" vertex="1" parent="gsN3HV_j6TI3Fi63ussc-5">
                    <mxGeometry width="30" height="30" as="geometry">
                        <mxRectangle width="30" height="30" as="alternateBounds"/>
                    </mxGeometry>
                </mxCell>
                <mxCell id="gsN3HV_j6TI3Fi63ussc-7" value="색상" style="shape=partialRectangle;connectable=0;fillColor=none;top=0;left=0;bottom=0;right=0;align=left;spacingLeft=6;overflow=hidden;whiteSpace=wrap;html=1;" vertex="1" parent="gsN3HV_j6TI3Fi63ussc-5">
                    <mxGeometry x="30" width="150" height="30" as="geometry">
                        <mxRectangle width="150" height="30" as="alternateBounds"/>
                    </mxGeometry>
                </mxCell>
            </root>
        </mxGraphModel>
    </diagram>
    <diagram id="9sePnPJ6Rbysd9pRS4RP" name="학사ERD">
        <mxGraphModel dx="959" dy="787" grid="1" gridSize="10" guides="1" tooltips="1" connect="1" arrows="1" fold="1" page="1" pageScale="1" pageWidth="850" pageHeight="1100" math="0" shadow="0">
            <root>
                <mxCell id="0"/>
                <mxCell id="1" parent="0"/>
                <mxCell id="AZCEM2qwznPGuoSHD_ry-36" style="edgeStyle=none;html=1;entryX=0.5;entryY=1;entryDx=0;entryDy=0;endArrow=none;endFill=0;" edge="1" parent="1" source="AZCEM2qwznPGuoSHD_ry-2" target="AZCEM2qwznPGuoSHD_ry-19">
                    <mxGeometry relative="1" as="geometry">
                        <Array as="points">
                            <mxPoint x="140" y="260"/>
                        </Array>
                    </mxGeometry>
                </mxCell>
                <mxCell id="AZCEM2qwznPGuoSHD_ry-2" value="과목" style="whiteSpace=wrap;html=1;align=center;" vertex="1" parent="1">
                    <mxGeometry x="320" y="240" width="120" height="40" as="geometry"/>
                </mxCell>
                <mxCell id="AZCEM2qwznPGuoSHD_ry-34" style="edgeStyle=none;html=1;entryX=1;entryY=0.5;entryDx=0;entryDy=0;endArrow=none;endFill=0;" edge="1" parent="1" source="AZCEM2qwznPGuoSHD_ry-3" target="AZCEM2qwznPGuoSHD_ry-25">
                    <mxGeometry relative="1" as="geometry">
                        <Array as="points">
                            <mxPoint x="190" y="460"/>
                        </Array>
                    </mxGeometry>
                </mxCell>
                <mxCell id="AZCEM2qwznPGuoSHD_ry-3" value="학과" style="whiteSpace=wrap;html=1;align=center;" vertex="1" parent="1">
                    <mxGeometry x="140" y="400" width="100" height="40" as="geometry"/>
                </mxCell>
                <mxCell id="AZCEM2qwznPGuoSHD_ry-5" value="교수" style="whiteSpace=wrap;html=1;align=center;" vertex="1" parent="1">
                    <mxGeometry x="520" y="400" width="100" height="40" as="geometry"/>
                </mxCell>
                <mxCell id="AZCEM2qwznPGuoSHD_ry-30" style="edgeStyle=none;html=1;entryX=0.5;entryY=1;entryDx=0;entryDy=0;endArrow=none;endFill=0;" edge="1" parent="1" source="AZCEM2qwznPGuoSHD_ry-6" target="AZCEM2qwznPGuoSHD_ry-23">
                    <mxGeometry relative="1" as="geometry"/>
                </mxCell>
                <mxCell id="AZCEM2qwznPGuoSHD_ry-6" value="학번" style="ellipse;whiteSpace=wrap;html=1;align=center;fontStyle=4;" vertex="1" parent="1">
                    <mxGeometry x="200" y="640" width="100" height="40" as="geometry"/>
                </mxCell>
                <mxCell id="AZCEM2qwznPGuoSHD_ry-28" style="edgeStyle=none;html=1;entryX=0.5;entryY=1;entryDx=0;entryDy=0;endArrow=none;endFill=0;" edge="1" parent="1" source="AZCEM2qwznPGuoSHD_ry-7" target="AZCEM2qwznPGuoSHD_ry-23">
                    <mxGeometry relative="1" as="geometry"/>
                </mxCell>
                <mxCell id="AZCEM2qwznPGuoSHD_ry-7" value="키" style="ellipse;whiteSpace=wrap;html=1;align=center;fontStyle=4;" vertex="1" parent="1">
                    <mxGeometry x="400" y="680" width="100" height="40" as="geometry"/>
                </mxCell>
                <mxCell id="AZCEM2qwznPGuoSHD_ry-35" style="edgeStyle=none;html=1;exitX=1;exitY=0.5;exitDx=0;exitDy=0;entryX=0.5;entryY=0;entryDx=0;entryDy=0;endArrow=none;endFill=0;" edge="1" parent="1" source="AZCEM2qwznPGuoSHD_ry-8" target="AZCEM2qwznPGuoSHD_ry-3">
                    <mxGeometry relative="1" as="geometry">
                        <Array as="points">
                            <mxPoint x="190" y="380"/>
                        </Array>
                    </mxGeometry>
                </mxCell>
                <mxCell id="AZCEM2qwznPGuoSHD_ry-8" value="학과코드" style="ellipse;whiteSpace=wrap;html=1;align=center;fontStyle=4;" vertex="1" parent="1">
                    <mxGeometry y="360" width="100" height="40" as="geometry"/>
                </mxCell>
                <mxCell id="AZCEM2qwznPGuoSHD_ry-29" style="edgeStyle=none;html=1;entryX=0.5;entryY=1;entryDx=0;entryDy=0;endArrow=none;endFill=0;" edge="1" parent="1" source="AZCEM2qwznPGuoSHD_ry-9" target="AZCEM2qwznPGuoSHD_ry-23">
                    <mxGeometry relative="1" as="geometry"/>
                </mxCell>
                <mxCell id="AZCEM2qwznPGuoSHD_ry-9" value="이름" style="ellipse;whiteSpace=wrap;html=1;align=center;fontStyle=4;" vertex="1" parent="1">
                    <mxGeometry x="265" y="680" width="100" height="40" as="geometry"/>
                </mxCell>
                <mxCell id="AZCEM2qwznPGuoSHD_ry-46" style="edgeStyle=none;html=1;entryX=0.5;entryY=0;entryDx=0;entryDy=0;endArrow=none;endFill=0;" edge="1" parent="1" source="AZCEM2qwznPGuoSHD_ry-12" target="AZCEM2qwznPGuoSHD_ry-5">
                    <mxGeometry relative="1" as="geometry">
                        <Array as="points">
                            <mxPoint x="570" y="340"/>
                        </Array>
                    </mxGeometry>
                </mxCell>
                <mxCell id="AZCEM2qwznPGuoSHD_ry-12" value="교수코드" style="ellipse;whiteSpace=wrap;html=1;align=center;fontStyle=4;" vertex="1" parent="1">
                    <mxGeometry x="690" y="320" width="100" height="40" as="geometry"/>
                </mxCell>
                <mxCell id="AZCEM2qwznPGuoSHD_ry-45" style="edgeStyle=none;html=1;exitX=0;exitY=0.5;exitDx=0;exitDy=0;entryX=1;entryY=0.5;entryDx=0;entryDy=0;endArrow=none;endFill=0;" edge="1" parent="1" source="AZCEM2qwznPGuoSHD_ry-13" target="AZCEM2qwznPGuoSHD_ry-5">
                    <mxGeometry relative="1" as="geometry"/>
                </mxCell>
                <mxCell id="AZCEM2qwznPGuoSHD_ry-13" value="교수명" style="ellipse;whiteSpace=wrap;html=1;align=center;fontStyle=4;" vertex="1" parent="1">
                    <mxGeometry x="690" y="400" width="100" height="40" as="geometry"/>
                </mxCell>
                <mxCell id="AZCEM2qwznPGuoSHD_ry-14" value="학과코드" style="ellipse;whiteSpace=wrap;html=1;align=center;fontStyle=4;" vertex="1" parent="1">
                    <mxGeometry x="690" y="480" width="100" height="40" as="geometry"/>
                </mxCell>
                <mxCell id="AZCEM2qwznPGuoSHD_ry-39" style="edgeStyle=none;html=1;exitX=0.5;exitY=1;exitDx=0;exitDy=0;entryX=1;entryY=0.25;entryDx=0;entryDy=0;endArrow=none;endFill=0;" edge="1" parent="1" source="AZCEM2qwznPGuoSHD_ry-15" target="AZCEM2qwznPGuoSHD_ry-2">
                    <mxGeometry relative="1" as="geometry">
                        <Array as="points">
                            <mxPoint x="500" y="250"/>
                        </Array>
                    </mxGeometry>
                </mxCell>
                <mxCell id="AZCEM2qwznPGuoSHD_ry-15" value="시작일" style="ellipse;whiteSpace=wrap;html=1;align=center;fontStyle=4;" vertex="1" parent="1">
                    <mxGeometry x="450" y="120" width="100" height="40" as="geometry"/>
                </mxCell>
                <mxCell id="AZCEM2qwznPGuoSHD_ry-40" style="edgeStyle=none;html=1;entryX=1;entryY=0.5;entryDx=0;entryDy=0;endArrow=none;endFill=0;" edge="1" parent="1" source="AZCEM2qwznPGuoSHD_ry-16" target="AZCEM2qwznPGuoSHD_ry-2">
                    <mxGeometry relative="1" as="geometry">
                        <Array as="points">
                            <mxPoint x="620" y="260"/>
                        </Array>
                    </mxGeometry>
                </mxCell>
                <mxCell id="AZCEM2qwznPGuoSHD_ry-16" value="종료일" style="ellipse;whiteSpace=wrap;html=1;align=center;fontStyle=4;" vertex="1" parent="1">
                    <mxGeometry x="570" y="120" width="100" height="40" as="geometry"/>
                </mxCell>
                <mxCell id="AZCEM2qwznPGuoSHD_ry-38" style="edgeStyle=none;html=1;exitX=0.5;exitY=1;exitDx=0;exitDy=0;entryX=0.5;entryY=0;entryDx=0;entryDy=0;endArrow=none;endFill=0;" edge="1" parent="1" source="AZCEM2qwznPGuoSHD_ry-17" target="AZCEM2qwznPGuoSHD_ry-2">
                    <mxGeometry relative="1" as="geometry"/>
                </mxCell>
                <mxCell id="AZCEM2qwznPGuoSHD_ry-17" value="교수코드" style="ellipse;whiteSpace=wrap;html=1;align=center;fontStyle=4;" vertex="1" parent="1">
                    <mxGeometry x="330" y="120" width="100" height="40" as="geometry"/>
                </mxCell>
                <mxCell id="AZCEM2qwznPGuoSHD_ry-37" style="edgeStyle=none;html=1;exitX=0.5;exitY=1;exitDx=0;exitDy=0;entryX=0;entryY=0.25;entryDx=0;entryDy=0;endArrow=none;endFill=0;" edge="1" parent="1" source="AZCEM2qwznPGuoSHD_ry-18" target="AZCEM2qwznPGuoSHD_ry-2">
                    <mxGeometry relative="1" as="geometry">
                        <Array as="points">
                            <mxPoint x="260" y="250"/>
                        </Array>
                    </mxGeometry>
                </mxCell>
                <mxCell id="AZCEM2qwznPGuoSHD_ry-18" value="과목명" style="ellipse;whiteSpace=wrap;html=1;align=center;fontStyle=4;" vertex="1" parent="1">
                    <mxGeometry x="210" y="120" width="100" height="40" as="geometry"/>
                </mxCell>
                <mxCell id="AZCEM2qwznPGuoSHD_ry-19" value="과목코드" style="ellipse;whiteSpace=wrap;html=1;align=center;fontStyle=4;" vertex="1" parent="1">
                    <mxGeometry x="90" y="120" width="100" height="40" as="geometry"/>
                </mxCell>
                <mxCell id="AZCEM2qwznPGuoSHD_ry-49" style="edgeStyle=none;html=1;exitX=0.5;exitY=0;exitDx=0;exitDy=0;entryX=0.5;entryY=1;entryDx=0;entryDy=0;endArrow=none;endFill=0;" edge="1" parent="1" source="AZCEM2qwznPGuoSHD_ry-23" target="AZCEM2qwznPGuoSHD_ry-47">
                    <mxGeometry relative="1" as="geometry"/>
                </mxCell>
                <mxCell id="AZCEM2qwznPGuoSHD_ry-23" value="학생" style="whiteSpace=wrap;html=1;align=center;" vertex="1" parent="1">
                    <mxGeometry x="320" y="560" width="120" height="40" as="geometry"/>
                </mxCell>
                <mxCell id="AZCEM2qwznPGuoSHD_ry-27" style="edgeStyle=none;html=1;entryX=0.5;entryY=1;entryDx=0;entryDy=0;endArrow=none;endFill=0;" edge="1" parent="1" source="AZCEM2qwznPGuoSHD_ry-24" target="AZCEM2qwznPGuoSHD_ry-23">
                    <mxGeometry relative="1" as="geometry"/>
                </mxCell>
                <mxCell id="AZCEM2qwznPGuoSHD_ry-24" value="학과코드" style="ellipse;whiteSpace=wrap;html=1;align=center;fontStyle=4;" vertex="1" parent="1">
                    <mxGeometry x="460" y="640" width="100" height="40" as="geometry"/>
                </mxCell>
                <mxCell id="AZCEM2qwznPGuoSHD_ry-25" value="학과명" style="ellipse;whiteSpace=wrap;html=1;align=center;fontStyle=4;" vertex="1" parent="1">
                    <mxGeometry y="440" width="100" height="40" as="geometry"/>
                </mxCell>
                <mxCell id="AZCEM2qwznPGuoSHD_ry-44" style="edgeStyle=none;html=1;entryX=0.5;entryY=1;entryDx=0;entryDy=0;endArrow=none;endFill=0;" edge="1" parent="1" source="AZCEM2qwznPGuoSHD_ry-14" target="AZCEM2qwznPGuoSHD_ry-5">
                    <mxGeometry relative="1" as="geometry">
                        <mxPoint x="703" y="487" as="sourcePoint"/>
                        <mxPoint x="570" y="440" as="targetPoint"/>
                        <Array as="points">
                            <mxPoint x="570" y="500"/>
                        </Array>
                    </mxGeometry>
                </mxCell>
                <mxCell id="AZCEM2qwznPGuoSHD_ry-48" style="edgeStyle=none;html=1;entryX=0.5;entryY=1;entryDx=0;entryDy=0;endArrow=none;endFill=0;" edge="1" parent="1" source="AZCEM2qwznPGuoSHD_ry-47" target="AZCEM2qwznPGuoSHD_ry-2">
                    <mxGeometry relative="1" as="geometry"/>
                </mxCell>
                <mxCell id="AZCEM2qwznPGuoSHD_ry-51" style="edgeStyle=none;html=1;exitX=1;exitY=1;exitDx=0;exitDy=0;entryX=0.5;entryY=0;entryDx=0;entryDy=0;endArrow=none;endFill=0;" edge="1" parent="1" source="AZCEM2qwznPGuoSHD_ry-47" target="AZCEM2qwznPGuoSHD_ry-50">
                    <mxGeometry relative="1" as="geometry"/>
                </mxCell>
                <mxCell id="AZCEM2qwznPGuoSHD_ry-47" value="수강" style="shape=rhombus;perimeter=rhombusPerimeter;whiteSpace=wrap;html=1;align=center;" vertex="1" parent="1">
                    <mxGeometry x="320" y="390" width="120" height="60" as="geometry"/>
                </mxCell>
                <mxCell id="AZCEM2qwznPGuoSHD_ry-50" value="수강일자" style="ellipse;whiteSpace=wrap;html=1;align=center;fontStyle=4;" vertex="1" parent="1">
                    <mxGeometry x="440" y="480" width="100" height="40" as="geometry"/>
                </mxCell>
                <mxCell id="4Ts0_iv-60dBtH51Zguu-2" style="edgeStyle=none;html=1;entryX=0;entryY=1;entryDx=0;entryDy=0;endArrow=none;endFill=0;" edge="1" parent="1" source="4Ts0_iv-60dBtH51Zguu-1" target="AZCEM2qwznPGuoSHD_ry-47">
                    <mxGeometry relative="1" as="geometry"/>
                </mxCell>
                <mxCell id="4Ts0_iv-60dBtH51Zguu-1" value="" style="ellipse;whiteSpace=wrap;html=1;align=center;fontStyle=4;" vertex="1" parent="1">
                    <mxGeometry x="220" y="480" width="100" height="40" as="geometry"/>
                </mxCell>
            </root>
        </mxGraphModel>
    </diagram>
    <diagram id="ZHHZZIErvA7oIkcGEKBV" name="Page-5">
        <mxGraphModel dx="959" dy="787" grid="1" gridSize="10" guides="1" tooltips="1" connect="1" arrows="1" fold="1" page="1" pageScale="1" pageWidth="850" pageHeight="1100" math="0" shadow="0">
            <root>
                <mxCell id="0"/>
                <mxCell id="1" parent="0"/>
                <mxCell id="DjMeag98aOf-EUtaWKcX-1" value="학생" style="shape=table;startSize=30;container=1;collapsible=1;childLayout=tableLayout;fixedRows=1;rowLines=0;fontStyle=1;align=center;resizeLast=1;html=1;whiteSpace=wrap;" vertex="1" parent="1">
                    <mxGeometry x="80" y="80" width="160" height="150" as="geometry"/>
                </mxCell>
                <mxCell id="DjMeag98aOf-EUtaWKcX-2" value="" style="shape=tableRow;horizontal=0;startSize=0;swimlaneHead=0;swimlaneBody=0;fillColor=none;collapsible=0;dropTarget=0;points=[[0,0.5],[1,0.5]];portConstraint=eastwest;top=0;left=0;right=0;bottom=0;html=1;" vertex="1" parent="DjMeag98aOf-EUtaWKcX-1">
                    <mxGeometry y="30" width="160" height="30" as="geometry"/>
                </mxCell>
                <mxCell id="DjMeag98aOf-EUtaWKcX-3" value="PK" style="shape=partialRectangle;connectable=0;fillColor=none;top=0;left=0;bottom=0;right=0;fontStyle=1;overflow=hidden;html=1;whiteSpace=wrap;" vertex="1" parent="DjMeag98aOf-EUtaWKcX-2">
                    <mxGeometry width="60" height="30" as="geometry">
                        <mxRectangle width="60" height="30" as="alternateBounds"/>
                    </mxGeometry>
                </mxCell>
                <mxCell id="DjMeag98aOf-EUtaWKcX-4" value="학번" style="shape=partialRectangle;connectable=0;fillColor=none;top=0;left=0;bottom=0;right=0;align=left;spacingLeft=6;fontStyle=5;overflow=hidden;html=1;whiteSpace=wrap;" vertex="1" parent="DjMeag98aOf-EUtaWKcX-2">
                    <mxGeometry x="60" width="100" height="30" as="geometry">
                        <mxRectangle width="100" height="30" as="alternateBounds"/>
                    </mxGeometry>
                </mxCell>
                <mxCell id="DjMeag98aOf-EUtaWKcX-5" value="" style="shape=tableRow;horizontal=0;startSize=0;swimlaneHead=0;swimlaneBody=0;fillColor=none;collapsible=0;dropTarget=0;points=[[0,0.5],[1,0.5]];portConstraint=eastwest;top=0;left=0;right=0;bottom=1;html=1;" vertex="1" parent="DjMeag98aOf-EUtaWKcX-1">
                    <mxGeometry y="60" width="160" height="30" as="geometry"/>
                </mxCell>
                <mxCell id="DjMeag98aOf-EUtaWKcX-6" value="FK" style="shape=partialRectangle;connectable=0;fillColor=none;top=0;left=0;bottom=0;right=0;fontStyle=1;overflow=hidden;html=1;whiteSpace=wrap;" vertex="1" parent="DjMeag98aOf-EUtaWKcX-5">
                    <mxGeometry width="60" height="30" as="geometry">
                        <mxRectangle width="60" height="30" as="alternateBounds"/>
                    </mxGeometry>
                </mxCell>
                <mxCell id="DjMeag98aOf-EUtaWKcX-7" value="학과코드" style="shape=partialRectangle;connectable=0;fillColor=none;top=0;left=0;bottom=0;right=0;align=left;spacingLeft=6;fontStyle=5;overflow=hidden;html=1;whiteSpace=wrap;" vertex="1" parent="DjMeag98aOf-EUtaWKcX-5">
                    <mxGeometry x="60" width="100" height="30" as="geometry">
                        <mxRectangle width="100" height="30" as="alternateBounds"/>
                    </mxGeometry>
                </mxCell>
                <mxCell id="DjMeag98aOf-EUtaWKcX-8" value="" style="shape=tableRow;horizontal=0;startSize=0;swimlaneHead=0;swimlaneBody=0;fillColor=none;collapsible=0;dropTarget=0;points=[[0,0.5],[1,0.5]];portConstraint=eastwest;top=0;left=0;right=0;bottom=0;html=1;" vertex="1" parent="DjMeag98aOf-EUtaWKcX-1">
                    <mxGeometry y="90" width="160" height="30" as="geometry"/>
                </mxCell>
                <mxCell id="DjMeag98aOf-EUtaWKcX-9" value="" style="shape=partialRectangle;connectable=0;fillColor=none;top=0;left=0;bottom=0;right=0;editable=1;overflow=hidden;html=1;whiteSpace=wrap;" vertex="1" parent="DjMeag98aOf-EUtaWKcX-8">
                    <mxGeometry width="60" height="30" as="geometry">
                        <mxRectangle width="60" height="30" as="alternateBounds"/>
                    </mxGeometry>
                </mxCell>
                <mxCell id="DjMeag98aOf-EUtaWKcX-10" value="이름&lt;span style=&quot;white-space: pre;&quot;&gt;&#x9;&lt;/span&gt;" style="shape=partialRectangle;connectable=0;fillColor=none;top=0;left=0;bottom=0;right=0;align=left;spacingLeft=6;overflow=hidden;html=1;whiteSpace=wrap;" vertex="1" parent="DjMeag98aOf-EUtaWKcX-8">
                    <mxGeometry x="60" width="100" height="30" as="geometry">
                        <mxRectangle width="100" height="30" as="alternateBounds"/>
                    </mxGeometry>
                </mxCell>
                <mxCell id="DjMeag98aOf-EUtaWKcX-11" value="" style="shape=tableRow;horizontal=0;startSize=0;swimlaneHead=0;swimlaneBody=0;fillColor=none;collapsible=0;dropTarget=0;points=[[0,0.5],[1,0.5]];portConstraint=eastwest;top=0;left=0;right=0;bottom=0;html=1;" vertex="1" parent="DjMeag98aOf-EUtaWKcX-1">
                    <mxGeometry y="120" width="160" height="30" as="geometry"/>
                </mxCell>
                <mxCell id="DjMeag98aOf-EUtaWKcX-12" value="" style="shape=partialRectangle;connectable=0;fillColor=none;top=0;left=0;bottom=0;right=0;editable=1;overflow=hidden;html=1;whiteSpace=wrap;" vertex="1" parent="DjMeag98aOf-EUtaWKcX-11">
                    <mxGeometry width="60" height="30" as="geometry">
                        <mxRectangle width="60" height="30" as="alternateBounds"/>
                    </mxGeometry>
                </mxCell>
                <mxCell id="DjMeag98aOf-EUtaWKcX-13" value="&lt;div&gt;키&lt;/div&gt;" style="shape=partialRectangle;connectable=0;fillColor=none;top=0;left=0;bottom=0;right=0;align=left;spacingLeft=6;overflow=hidden;html=1;whiteSpace=wrap;" vertex="1" parent="DjMeag98aOf-EUtaWKcX-11">
                    <mxGeometry x="60" width="100" height="30" as="geometry">
                        <mxRectangle width="100" height="30" as="alternateBounds"/>
                    </mxGeometry>
                </mxCell>
                <mxCell id="DjMeag98aOf-EUtaWKcX-14" value="학과" style="shape=table;startSize=30;container=1;collapsible=1;childLayout=tableLayout;fixedRows=1;rowLines=0;fontStyle=1;align=center;resizeLast=1;html=1;whiteSpace=wrap;" vertex="1" parent="1">
                    <mxGeometry x="600" y="95" width="160" height="120" as="geometry"/>
                </mxCell>
                <mxCell id="DjMeag98aOf-EUtaWKcX-15" value="" style="shape=tableRow;horizontal=0;startSize=0;swimlaneHead=0;swimlaneBody=0;fillColor=none;collapsible=0;dropTarget=0;points=[[0,0.5],[1,0.5]];portConstraint=eastwest;top=0;left=0;right=0;bottom=0;html=1;" vertex="1" parent="DjMeag98aOf-EUtaWKcX-14">
                    <mxGeometry y="30" width="160" height="60" as="geometry"/>
                </mxCell>
                <mxCell id="DjMeag98aOf-EUtaWKcX-16" value="PK" style="shape=partialRectangle;connectable=0;fillColor=none;top=0;left=0;bottom=0;right=0;fontStyle=1;overflow=hidden;html=1;whiteSpace=wrap;" vertex="1" parent="DjMeag98aOf-EUtaWKcX-15">
                    <mxGeometry width="60" height="60" as="geometry">
                        <mxRectangle width="60" height="60" as="alternateBounds"/>
                    </mxGeometry>
                </mxCell>
                <mxCell id="DjMeag98aOf-EUtaWKcX-17" value="학과코드" style="shape=partialRectangle;connectable=0;fillColor=none;top=0;left=0;bottom=0;right=0;align=left;spacingLeft=6;fontStyle=5;overflow=hidden;html=1;whiteSpace=wrap;" vertex="1" parent="DjMeag98aOf-EUtaWKcX-15">
                    <mxGeometry x="60" width="100" height="60" as="geometry">
                        <mxRectangle width="100" height="60" as="alternateBounds"/>
                    </mxGeometry>
                </mxCell>
                <mxCell id="DjMeag98aOf-EUtaWKcX-21" value="" style="shape=tableRow;horizontal=0;startSize=0;swimlaneHead=0;swimlaneBody=0;fillColor=none;collapsible=0;dropTarget=0;points=[[0,0.5],[1,0.5]];portConstraint=eastwest;top=0;left=0;right=0;bottom=0;html=1;" vertex="1" parent="DjMeag98aOf-EUtaWKcX-14">
                    <mxGeometry y="90" width="160" height="30" as="geometry"/>
                </mxCell>
                <mxCell id="DjMeag98aOf-EUtaWKcX-22" value="" style="shape=partialRectangle;connectable=0;fillColor=none;top=0;left=0;bottom=0;right=0;editable=1;overflow=hidden;html=1;whiteSpace=wrap;" vertex="1" parent="DjMeag98aOf-EUtaWKcX-21">
                    <mxGeometry width="60" height="30" as="geometry">
                        <mxRectangle width="60" height="30" as="alternateBounds"/>
                    </mxGeometry>
                </mxCell>
                <mxCell id="DjMeag98aOf-EUtaWKcX-23" value="학과명" style="shape=partialRectangle;connectable=0;fillColor=none;top=0;left=0;bottom=0;right=0;align=left;spacingLeft=6;overflow=hidden;html=1;whiteSpace=wrap;" vertex="1" parent="DjMeag98aOf-EUtaWKcX-21">
                    <mxGeometry x="60" width="100" height="30" as="geometry">
                        <mxRectangle width="100" height="30" as="alternateBounds"/>
                    </mxGeometry>
                </mxCell>
                <mxCell id="DjMeag98aOf-EUtaWKcX-27" value="교수&lt;div&gt;&lt;br&gt;&lt;/div&gt;" style="shape=table;startSize=30;container=1;collapsible=1;childLayout=tableLayout;fixedRows=1;rowLines=0;fontStyle=1;align=center;resizeLast=1;html=1;whiteSpace=wrap;" vertex="1" parent="1">
                    <mxGeometry x="600" y="350" width="160" height="120" as="geometry"/>
                </mxCell>
                <mxCell id="DjMeag98aOf-EUtaWKcX-28" value="" style="shape=tableRow;horizontal=0;startSize=0;swimlaneHead=0;swimlaneBody=0;fillColor=none;collapsible=0;dropTarget=0;points=[[0,0.5],[1,0.5]];portConstraint=eastwest;top=0;left=0;right=0;bottom=0;html=1;" vertex="1" parent="DjMeag98aOf-EUtaWKcX-27">
                    <mxGeometry y="30" width="160" height="30" as="geometry"/>
                </mxCell>
                <mxCell id="DjMeag98aOf-EUtaWKcX-29" value="PK" style="shape=partialRectangle;connectable=0;fillColor=none;top=0;left=0;bottom=0;right=0;fontStyle=1;overflow=hidden;html=1;whiteSpace=wrap;" vertex="1" parent="DjMeag98aOf-EUtaWKcX-28">
                    <mxGeometry width="60" height="30" as="geometry">
                        <mxRectangle width="60" height="30" as="alternateBounds"/>
                    </mxGeometry>
                </mxCell>
                <mxCell id="DjMeag98aOf-EUtaWKcX-30" value="교수코드" style="shape=partialRectangle;connectable=0;fillColor=none;top=0;left=0;bottom=0;right=0;align=left;spacingLeft=6;fontStyle=5;overflow=hidden;html=1;whiteSpace=wrap;" vertex="1" parent="DjMeag98aOf-EUtaWKcX-28">
                    <mxGeometry x="60" width="100" height="30" as="geometry">
                        <mxRectangle width="100" height="30" as="alternateBounds"/>
                    </mxGeometry>
                </mxCell>
                <mxCell id="DjMeag98aOf-EUtaWKcX-31" value="" style="shape=tableRow;horizontal=0;startSize=0;swimlaneHead=0;swimlaneBody=0;fillColor=none;collapsible=0;dropTarget=0;points=[[0,0.5],[1,0.5]];portConstraint=eastwest;top=0;left=0;right=0;bottom=1;html=1;" vertex="1" parent="DjMeag98aOf-EUtaWKcX-27">
                    <mxGeometry y="60" width="160" height="30" as="geometry"/>
                </mxCell>
                <mxCell id="DjMeag98aOf-EUtaWKcX-32" value="Fk" style="shape=partialRectangle;connectable=0;fillColor=none;top=0;left=0;bottom=0;right=0;fontStyle=1;overflow=hidden;html=1;whiteSpace=wrap;" vertex="1" parent="DjMeag98aOf-EUtaWKcX-31">
                    <mxGeometry width="60" height="30" as="geometry">
                        <mxRectangle width="60" height="30" as="alternateBounds"/>
                    </mxGeometry>
                </mxCell>
                <mxCell id="DjMeag98aOf-EUtaWKcX-33" value="학과코드" style="shape=partialRectangle;connectable=0;fillColor=none;top=0;left=0;bottom=0;right=0;align=left;spacingLeft=6;fontStyle=5;overflow=hidden;html=1;whiteSpace=wrap;" vertex="1" parent="DjMeag98aOf-EUtaWKcX-31">
                    <mxGeometry x="60" width="100" height="30" as="geometry">
                        <mxRectangle width="100" height="30" as="alternateBounds"/>
                    </mxGeometry>
                </mxCell>
                <mxCell id="DjMeag98aOf-EUtaWKcX-34" value="" style="shape=tableRow;horizontal=0;startSize=0;swimlaneHead=0;swimlaneBody=0;fillColor=none;collapsible=0;dropTarget=0;points=[[0,0.5],[1,0.5]];portConstraint=eastwest;top=0;left=0;right=0;bottom=0;html=1;" vertex="1" parent="DjMeag98aOf-EUtaWKcX-27">
                    <mxGeometry y="90" width="160" height="30" as="geometry"/>
                </mxCell>
                <mxCell id="DjMeag98aOf-EUtaWKcX-35" value="" style="shape=partialRectangle;connectable=0;fillColor=none;top=0;left=0;bottom=0;right=0;editable=1;overflow=hidden;html=1;whiteSpace=wrap;" vertex="1" parent="DjMeag98aOf-EUtaWKcX-34">
                    <mxGeometry width="60" height="30" as="geometry">
                        <mxRectangle width="60" height="30" as="alternateBounds"/>
                    </mxGeometry>
                </mxCell>
                <mxCell id="DjMeag98aOf-EUtaWKcX-36" value="교수명" style="shape=partialRectangle;connectable=0;fillColor=none;top=0;left=0;bottom=0;right=0;align=left;spacingLeft=6;overflow=hidden;html=1;whiteSpace=wrap;" vertex="1" parent="DjMeag98aOf-EUtaWKcX-34">
                    <mxGeometry x="60" width="100" height="30" as="geometry">
                        <mxRectangle width="100" height="30" as="alternateBounds"/>
                    </mxGeometry>
                </mxCell>
                <mxCell id="DjMeag98aOf-EUtaWKcX-40" value="수강" style="shape=table;startSize=30;container=1;collapsible=1;childLayout=tableLayout;fixedRows=1;rowLines=0;fontStyle=1;align=center;resizeLast=1;html=1;whiteSpace=wrap;" vertex="1" parent="1">
                    <mxGeometry x="360" y="200" width="160" height="180" as="geometry"/>
                </mxCell>
                <mxCell id="DjMeag98aOf-EUtaWKcX-41" value="" style="shape=tableRow;horizontal=0;startSize=0;swimlaneHead=0;swimlaneBody=0;fillColor=none;collapsible=0;dropTarget=0;points=[[0,0.5],[1,0.5]];portConstraint=eastwest;top=0;left=0;right=0;bottom=0;html=1;" vertex="1" parent="DjMeag98aOf-EUtaWKcX-40">
                    <mxGeometry y="30" width="160" height="30" as="geometry"/>
                </mxCell>
                <mxCell id="DjMeag98aOf-EUtaWKcX-42" value="PK" style="shape=partialRectangle;connectable=0;fillColor=none;top=0;left=0;bottom=0;right=0;fontStyle=1;overflow=hidden;html=1;whiteSpace=wrap;" vertex="1" parent="DjMeag98aOf-EUtaWKcX-41">
                    <mxGeometry width="60" height="30" as="geometry">
                        <mxRectangle width="60" height="30" as="alternateBounds"/>
                    </mxGeometry>
                </mxCell>
                <mxCell id="DjMeag98aOf-EUtaWKcX-43" value="수강번호" style="shape=partialRectangle;connectable=0;fillColor=none;top=0;left=0;bottom=0;right=0;align=left;spacingLeft=6;fontStyle=5;overflow=hidden;html=1;whiteSpace=wrap;" vertex="1" parent="DjMeag98aOf-EUtaWKcX-41">
                    <mxGeometry x="60" width="100" height="30" as="geometry">
                        <mxRectangle width="100" height="30" as="alternateBounds"/>
                    </mxGeometry>
                </mxCell>
                <mxCell id="DjMeag98aOf-EUtaWKcX-44" value="" style="shape=tableRow;horizontal=0;startSize=0;swimlaneHead=0;swimlaneBody=0;fillColor=none;collapsible=0;dropTarget=0;points=[[0,0.5],[1,0.5]];portConstraint=eastwest;top=0;left=0;right=0;bottom=1;html=1;" vertex="1" parent="DjMeag98aOf-EUtaWKcX-40">
                    <mxGeometry y="60" width="160" height="30" as="geometry"/>
                </mxCell>
                <mxCell id="DjMeag98aOf-EUtaWKcX-45" value="Fk" style="shape=partialRectangle;connectable=0;fillColor=none;top=0;left=0;bottom=0;right=0;fontStyle=1;overflow=hidden;html=1;whiteSpace=wrap;" vertex="1" parent="DjMeag98aOf-EUtaWKcX-44">
                    <mxGeometry width="60" height="30" as="geometry">
                        <mxRectangle width="60" height="30" as="alternateBounds"/>
                    </mxGeometry>
                </mxCell>
                <mxCell id="DjMeag98aOf-EUtaWKcX-46" value="학번" style="shape=partialRectangle;connectable=0;fillColor=none;top=0;left=0;bottom=0;right=0;align=left;spacingLeft=6;fontStyle=5;overflow=hidden;html=1;whiteSpace=wrap;" vertex="1" parent="DjMeag98aOf-EUtaWKcX-44">
                    <mxGeometry x="60" width="100" height="30" as="geometry">
                        <mxRectangle width="100" height="30" as="alternateBounds"/>
                    </mxGeometry>
                </mxCell>
                <mxCell id="hkjnBl3HVrjbppajry9D-1" value="" style="shape=tableRow;horizontal=0;startSize=0;swimlaneHead=0;swimlaneBody=0;fillColor=none;collapsible=0;dropTarget=0;points=[[0,0.5],[1,0.5]];portConstraint=eastwest;top=0;left=0;right=0;bottom=1;html=1;" vertex="1" parent="DjMeag98aOf-EUtaWKcX-40">
                    <mxGeometry y="90" width="160" height="30" as="geometry"/>
                </mxCell>
                <mxCell id="hkjnBl3HVrjbppajry9D-2" value="Fk" style="shape=partialRectangle;connectable=0;fillColor=none;top=0;left=0;bottom=0;right=0;fontStyle=1;overflow=hidden;html=1;whiteSpace=wrap;" vertex="1" parent="hkjnBl3HVrjbppajry9D-1">
                    <mxGeometry width="60" height="30" as="geometry">
                        <mxRectangle width="60" height="30" as="alternateBounds"/>
                    </mxGeometry>
                </mxCell>
                <mxCell id="hkjnBl3HVrjbppajry9D-3" value="과목코드" style="shape=partialRectangle;connectable=0;fillColor=none;top=0;left=0;bottom=0;right=0;align=left;spacingLeft=6;fontStyle=5;overflow=hidden;html=1;whiteSpace=wrap;" vertex="1" parent="hkjnBl3HVrjbppajry9D-1">
                    <mxGeometry x="60" width="100" height="30" as="geometry">
                        <mxRectangle width="100" height="30" as="alternateBounds"/>
                    </mxGeometry>
                </mxCell>
                <mxCell id="DjMeag98aOf-EUtaWKcX-60" value="" style="shape=tableRow;horizontal=0;startSize=0;swimlaneHead=0;swimlaneBody=0;fillColor=none;collapsible=0;dropTarget=0;points=[[0,0.5],[1,0.5]];portConstraint=eastwest;top=0;left=0;right=0;bottom=0;html=1;" vertex="1" parent="DjMeag98aOf-EUtaWKcX-40">
                    <mxGeometry y="120" width="160" height="30" as="geometry"/>
                </mxCell>
                <mxCell id="DjMeag98aOf-EUtaWKcX-61" value="" style="shape=partialRectangle;connectable=0;fillColor=none;top=0;left=0;bottom=0;right=0;editable=1;overflow=hidden;html=1;whiteSpace=wrap;" vertex="1" parent="DjMeag98aOf-EUtaWKcX-60">
                    <mxGeometry width="60" height="30" as="geometry">
                        <mxRectangle width="60" height="30" as="alternateBounds"/>
                    </mxGeometry>
                </mxCell>
                <mxCell id="DjMeag98aOf-EUtaWKcX-62" value="수강일자" style="shape=partialRectangle;connectable=0;fillColor=none;top=0;left=0;bottom=0;right=0;align=left;spacingLeft=6;overflow=hidden;html=1;whiteSpace=wrap;" vertex="1" parent="DjMeag98aOf-EUtaWKcX-60">
                    <mxGeometry x="60" width="100" height="30" as="geometry">
                        <mxRectangle width="100" height="30" as="alternateBounds"/>
                    </mxGeometry>
                </mxCell>
                <mxCell id="DjMeag98aOf-EUtaWKcX-63" value="" style="shape=tableRow;horizontal=0;startSize=0;swimlaneHead=0;swimlaneBody=0;fillColor=none;collapsible=0;dropTarget=0;points=[[0,0.5],[1,0.5]];portConstraint=eastwest;top=0;left=0;right=0;bottom=0;html=1;" vertex="1" parent="DjMeag98aOf-EUtaWKcX-40">
                    <mxGeometry y="150" width="160" height="30" as="geometry"/>
                </mxCell>
                <mxCell id="DjMeag98aOf-EUtaWKcX-64" value="" style="shape=partialRectangle;connectable=0;fillColor=none;top=0;left=0;bottom=0;right=0;editable=1;overflow=hidden;html=1;whiteSpace=wrap;" vertex="1" parent="DjMeag98aOf-EUtaWKcX-63">
                    <mxGeometry width="60" height="30" as="geometry">
                        <mxRectangle width="60" height="30" as="alternateBounds"/>
                    </mxGeometry>
                </mxCell>
                <mxCell id="DjMeag98aOf-EUtaWKcX-65" value="학점" style="shape=partialRectangle;connectable=0;fillColor=none;top=0;left=0;bottom=0;right=0;align=left;spacingLeft=6;overflow=hidden;html=1;whiteSpace=wrap;" vertex="1" parent="DjMeag98aOf-EUtaWKcX-63">
                    <mxGeometry x="60" width="100" height="30" as="geometry">
                        <mxRectangle width="100" height="30" as="alternateBounds"/>
                    </mxGeometry>
                </mxCell>
                <mxCell id="DjMeag98aOf-EUtaWKcX-66" value="과목" style="shape=table;startSize=30;container=1;collapsible=1;childLayout=tableLayout;fixedRows=1;rowLines=0;fontStyle=1;align=center;resizeLast=1;html=1;whiteSpace=wrap;" vertex="1" parent="1">
                    <mxGeometry x="80" y="320" width="160" height="180" as="geometry"/>
                </mxCell>
                <mxCell id="DjMeag98aOf-EUtaWKcX-67" value="" style="shape=tableRow;horizontal=0;startSize=0;swimlaneHead=0;swimlaneBody=0;fillColor=none;collapsible=0;dropTarget=0;points=[[0,0.5],[1,0.5]];portConstraint=eastwest;top=0;left=0;right=0;bottom=0;html=1;" vertex="1" parent="DjMeag98aOf-EUtaWKcX-66">
                    <mxGeometry y="30" width="160" height="30" as="geometry"/>
                </mxCell>
                <mxCell id="DjMeag98aOf-EUtaWKcX-68" value="PK" style="shape=partialRectangle;connectable=0;fillColor=none;top=0;left=0;bottom=0;right=0;fontStyle=1;overflow=hidden;html=1;whiteSpace=wrap;" vertex="1" parent="DjMeag98aOf-EUtaWKcX-67">
                    <mxGeometry width="60" height="30" as="geometry">
                        <mxRectangle width="60" height="30" as="alternateBounds"/>
                    </mxGeometry>
                </mxCell>
                <mxCell id="DjMeag98aOf-EUtaWKcX-69" value="과목코드" style="shape=partialRectangle;connectable=0;fillColor=none;top=0;left=0;bottom=0;right=0;align=left;spacingLeft=6;fontStyle=5;overflow=hidden;html=1;whiteSpace=wrap;" vertex="1" parent="DjMeag98aOf-EUtaWKcX-67">
                    <mxGeometry x="60" width="100" height="30" as="geometry">
                        <mxRectangle width="100" height="30" as="alternateBounds"/>
                    </mxGeometry>
                </mxCell>
                <mxCell id="DjMeag98aOf-EUtaWKcX-70" value="" style="shape=tableRow;horizontal=0;startSize=0;swimlaneHead=0;swimlaneBody=0;fillColor=none;collapsible=0;dropTarget=0;points=[[0,0.5],[1,0.5]];portConstraint=eastwest;top=0;left=0;right=0;bottom=1;html=1;" vertex="1" parent="DjMeag98aOf-EUtaWKcX-66">
                    <mxGeometry y="60" width="160" height="30" as="geometry"/>
                </mxCell>
                <mxCell id="DjMeag98aOf-EUtaWKcX-71" value="Fk" style="shape=partialRectangle;connectable=0;fillColor=none;top=0;left=0;bottom=0;right=0;fontStyle=1;overflow=hidden;html=1;whiteSpace=wrap;" vertex="1" parent="DjMeag98aOf-EUtaWKcX-70">
                    <mxGeometry width="60" height="30" as="geometry">
                        <mxRectangle width="60" height="30" as="alternateBounds"/>
                    </mxGeometry>
                </mxCell>
                <mxCell id="DjMeag98aOf-EUtaWKcX-72" value="교수코드" style="shape=partialRectangle;connectable=0;fillColor=none;top=0;left=0;bottom=0;right=0;align=left;spacingLeft=6;fontStyle=5;overflow=hidden;html=1;whiteSpace=wrap;" vertex="1" parent="DjMeag98aOf-EUtaWKcX-70">
                    <mxGeometry x="60" width="100" height="30" as="geometry">
                        <mxRectangle width="100" height="30" as="alternateBounds"/>
                    </mxGeometry>
                </mxCell>
                <mxCell id="DjMeag98aOf-EUtaWKcX-73" value="" style="shape=tableRow;horizontal=0;startSize=0;swimlaneHead=0;swimlaneBody=0;fillColor=none;collapsible=0;dropTarget=0;points=[[0,0.5],[1,0.5]];portConstraint=eastwest;top=0;left=0;right=0;bottom=0;html=1;" vertex="1" parent="DjMeag98aOf-EUtaWKcX-66">
                    <mxGeometry y="90" width="160" height="30" as="geometry"/>
                </mxCell>
                <mxCell id="DjMeag98aOf-EUtaWKcX-74" value="" style="shape=partialRectangle;connectable=0;fillColor=none;top=0;left=0;bottom=0;right=0;editable=1;overflow=hidden;html=1;whiteSpace=wrap;" vertex="1" parent="DjMeag98aOf-EUtaWKcX-73">
                    <mxGeometry width="60" height="30" as="geometry">
                        <mxRectangle width="60" height="30" as="alternateBounds"/>
                    </mxGeometry>
                </mxCell>
                <mxCell id="DjMeag98aOf-EUtaWKcX-75" value="과목명" style="shape=partialRectangle;connectable=0;fillColor=none;top=0;left=0;bottom=0;right=0;align=left;spacingLeft=6;overflow=hidden;html=1;whiteSpace=wrap;" vertex="1" parent="DjMeag98aOf-EUtaWKcX-73">
                    <mxGeometry x="60" width="100" height="30" as="geometry">
                        <mxRectangle width="100" height="30" as="alternateBounds"/>
                    </mxGeometry>
                </mxCell>
                <mxCell id="DjMeag98aOf-EUtaWKcX-76" value="" style="shape=tableRow;horizontal=0;startSize=0;swimlaneHead=0;swimlaneBody=0;fillColor=none;collapsible=0;dropTarget=0;points=[[0,0.5],[1,0.5]];portConstraint=eastwest;top=0;left=0;right=0;bottom=0;html=1;" vertex="1" parent="DjMeag98aOf-EUtaWKcX-66">
                    <mxGeometry y="120" width="160" height="30" as="geometry"/>
                </mxCell>
                <mxCell id="DjMeag98aOf-EUtaWKcX-77" value="" style="shape=partialRectangle;connectable=0;fillColor=none;top=0;left=0;bottom=0;right=0;editable=1;overflow=hidden;html=1;whiteSpace=wrap;" vertex="1" parent="DjMeag98aOf-EUtaWKcX-76">
                    <mxGeometry width="60" height="30" as="geometry">
                        <mxRectangle width="60" height="30" as="alternateBounds"/>
                    </mxGeometry>
                </mxCell>
                <mxCell id="DjMeag98aOf-EUtaWKcX-78" value="시작일" style="shape=partialRectangle;connectable=0;fillColor=none;top=0;left=0;bottom=0;right=0;align=left;spacingLeft=6;overflow=hidden;html=1;whiteSpace=wrap;" vertex="1" parent="DjMeag98aOf-EUtaWKcX-76">
                    <mxGeometry x="60" width="100" height="30" as="geometry">
                        <mxRectangle width="100" height="30" as="alternateBounds"/>
                    </mxGeometry>
                </mxCell>
                <mxCell id="OuvSQhrZPKgmqJIqF3XZ-1" value="" style="shape=tableRow;horizontal=0;startSize=0;swimlaneHead=0;swimlaneBody=0;fillColor=none;collapsible=0;dropTarget=0;points=[[0,0.5],[1,0.5]];portConstraint=eastwest;top=0;left=0;right=0;bottom=0;html=1;" vertex="1" parent="DjMeag98aOf-EUtaWKcX-66">
                    <mxGeometry y="150" width="160" height="30" as="geometry"/>
                </mxCell>
                <mxCell id="OuvSQhrZPKgmqJIqF3XZ-2" value="" style="shape=partialRectangle;connectable=0;fillColor=none;top=0;left=0;bottom=0;right=0;editable=1;overflow=hidden;html=1;whiteSpace=wrap;" vertex="1" parent="OuvSQhrZPKgmqJIqF3XZ-1">
                    <mxGeometry width="60" height="30" as="geometry">
                        <mxRectangle width="60" height="30" as="alternateBounds"/>
                    </mxGeometry>
                </mxCell>
                <mxCell id="OuvSQhrZPKgmqJIqF3XZ-3" value="시작일" style="shape=partialRectangle;connectable=0;fillColor=none;top=0;left=0;bottom=0;right=0;align=left;spacingLeft=6;overflow=hidden;html=1;whiteSpace=wrap;" vertex="1" parent="OuvSQhrZPKgmqJIqF3XZ-1">
                    <mxGeometry x="60" width="100" height="30" as="geometry">
                        <mxRectangle width="100" height="30" as="alternateBounds"/>
                    </mxGeometry>
                </mxCell>
                <mxCell id="e7UgQ7tyzvv5pFVfNf8k-45" style="edgeStyle=none;html=1;exitX=0;exitY=0.5;exitDx=0;exitDy=0;endArrow=ERoneToMany;endFill=0;entryX=1;entryY=0.5;entryDx=0;entryDy=0;" edge="1" parent="1" source="DjMeag98aOf-EUtaWKcX-15" target="DjMeag98aOf-EUtaWKcX-5">
                    <mxGeometry relative="1" as="geometry">
                        <mxPoint x="500" y="100" as="targetPoint"/>
                    </mxGeometry>
                </mxCell>
                <mxCell id="e7UgQ7tyzvv5pFVfNf8k-46" style="edgeStyle=none;html=1;exitX=0;exitY=0.5;exitDx=0;exitDy=0;entryX=1;entryY=0.5;entryDx=0;entryDy=0;endArrow=ERoneToMany;endFill=0;" edge="1" parent="1" source="DjMeag98aOf-EUtaWKcX-31">
                    <mxGeometry relative="1" as="geometry">
                        <mxPoint x="240" y="425" as="targetPoint"/>
                    </mxGeometry>
                </mxCell>
                <mxCell id="e7UgQ7tyzvv5pFVfNf8k-47" style="edgeStyle=none;html=1;exitX=1;exitY=0.5;exitDx=0;exitDy=0;entryX=0.988;entryY=0.733;entryDx=0;entryDy=0;entryPerimeter=0;endArrow=ERoneToMany;endFill=0;" edge="1" parent="1" source="DjMeag98aOf-EUtaWKcX-15" target="DjMeag98aOf-EUtaWKcX-31">
                    <mxGeometry relative="1" as="geometry">
                        <Array as="points">
                            <mxPoint x="830" y="155"/>
                            <mxPoint x="830" y="432"/>
                        </Array>
                    </mxGeometry>
                </mxCell>
                <mxCell id="e7UgQ7tyzvv5pFVfNf8k-48" style="edgeStyle=none;html=1;exitX=1;exitY=0.5;exitDx=0;exitDy=0;entryX=0;entryY=0.5;entryDx=0;entryDy=0;endArrow=ERoneToMany;endFill=0;" edge="1" parent="1" source="DjMeag98aOf-EUtaWKcX-8" target="DjMeag98aOf-EUtaWKcX-44">
                    <mxGeometry relative="1" as="geometry">
                        <Array as="points">
                            <mxPoint x="290" y="185"/>
                            <mxPoint x="290" y="275"/>
                        </Array>
                    </mxGeometry>
                </mxCell>
                <mxCell id="e7UgQ7tyzvv5pFVfNf8k-50" style="edgeStyle=none;html=1;exitX=1;exitY=0.5;exitDx=0;exitDy=0;endArrow=ERoneToMany;endFill=0;" edge="1" parent="1" source="DjMeag98aOf-EUtaWKcX-70">
                    <mxGeometry relative="1" as="geometry">
                        <mxPoint x="361" y="324" as="targetPoint"/>
                        <Array as="points">
                            <mxPoint x="290" y="395"/>
                            <mxPoint x="290" y="324"/>
                        </Array>
                    </mxGeometry>
                </mxCell>
            </root>
        </mxGraphModel>
    </diagram>
</mxfile>